<svg xmlns="http://www.w3.org/2000/svg"><defs><font horiz-adv-x="1050"><font-face units-per-em="2048" ascent="1638" descent="-410"/><glyph horiz-adv-x="0"/><glyph horiz-adv-x="0"/><glyph horiz-adv-x="456"/><glyph horiz-adv-x="389"/><glyph horiz-adv-x="389"/><glyph horiz-adv-x="389"/><glyph unicode="!" horiz-adv-x="385" d="M88 88q0 51 29.5 82t75.5 31q47 0 75.5-31t28.5-82-28.5-81-75.5-30q-45 0-75 30t-30 81zm33 330v948h147v-948h-147z"/><glyph unicode=""" horiz-adv-x="620" d="M98 760v606h140v-606h-140zm285 0v606h141v-606h-141z"/><glyph unicode="#" horiz-adv-x="1150" d="M0 496v139h328v248h-328v137h328v346h131v-346h233v346h133v-346h326v-137h-326v-248h326v-139h-326v-344h-133v344h-233v-344h-131v344h-328zm459 139h233v248h-233v-248z"/><glyph unicode="$" d="M76 168l100 111q47-70 119-116t164-50v553q-68 31-128.5 65.5t-107.5 80.5-74.5 105.5-27.5 139.5q0 76 26.5 136t72.5 102 107.5 66.5 131.5 29.5v270h125v-270q66-6 121-25.5t98-49.5 74.5-64.5 50.5-71.5l-99-88q-45 68-101 109.5t-144 51.5v-471q90-45 157.5-87t111.5-89 65.5-105 21.5-136q0-86-27.5-155t-74.5-118-113-78.5-141-38.5v-276h-125v276q-123 2-224.5 55.5t-158.5 137.5zm192 899q0-51 15.5-88t42-64.5 61.5-49 72-40.5v430q-80-6-135.5-54t-55.5-134zm316-956q84 8 144 70t60 173q0 92-52 151.5t-152 112.5v-507z"/><glyph unicode="%" horiz-adv-x="1439" d="M51 92l1233 1282 92-98-1231-1290zm15 973q0 63 23.5 120.5t63.5 100.5 94 67.5 115 24.5 115.5-24.5 94.5-67.5 63.5-100.5 23.5-120.5q0-66-23.5-122t-63.5-99-94-67.5-116-24.5q-61 0-115 24.5t-94 67.5-63.5 99-23.5 122zm124 2q0-37 13.5-70.5t36-59.5 54.5-41 66-15q35 0 66 15t54.5 41 36.5 59.5 13 70.5-13 70.5-36.5 59.5-54.5 41-66 15-66.5-15-54-41-36-59.5-13.5-70.5zm607-768q0 63 22.5 120.5t62.5 100.5 94 67.5 116 24.5q61 0 115.5-24.5t94-67.5 63.5-100.5 24-120.5q0-66-24-122t-63.5-99-94-67.5-115.5-24.5-115.5 24.5-94.5 67.5-62.5 99-22.5 122zm123 2q0-37 13-70.5t35.5-59.5 54.5-41 67-15 66.5 15 55 41 37 59.5 13.5 70.5-13.5 71-37 59.5-55.5 40.5-66 15q-35 0-67-15t-54.5-40.5-35.5-59.5-13-71z"/><glyph unicode="&" horiz-adv-x="1257" d="M57 348q0 78 24.5 143.5t66.5 118 98.5 94 118.5 74.5l51 27-27 31q-33 39-56.5 71.5t-37.5 63-21.5 63.5-7.5 70q0 57 22.5 107.5t64.5 87 103.5 57 139.5 20.5q82 0 141.5-22.5t100.5-56 66.5-73.5 41.5-73l-115-88q-18 33-40.5 66.5t-51 61.5-64.5 44-81 16q-86 0-128-41t-42-108q0-53 26.5-97t73.5-104l369-477 215 299 104-88-231-320 223-315h-170l-143 199q-43-49-88-89t-97.5-70-113-46.5-133.5-16.5q-113 0-189.5 33t-124 86.5-68 120-20.5 131.5zm152 0q0-41 13.5-85t43-78.5 78.5-57.5 121-23q51 0 99 17.5t90 46.5 78 65.5 65 73.5l-301 402-35-19q-47-25-92-55.5t-80-71.5-57.5-94-22.5-121z"/><glyph unicode="'" horiz-adv-x="331" d="M98 760v606h135v-606h-135z"/><glyph unicode="(" horiz-adv-x="559" d="M86 698q0 150 30.5 276t84 227.5 125 176 151.5 123.5l72-92q-86-68-146.5-138.5t-98.5-153.5-55.5-185.5-17.5-233.5q0-137 27-248.5t72-200.5 104.5-159 124.5-121l-67-102q-86 59-160 140t-128 184.5-86 229.5-32 277z"/><glyph unicode=")" horiz-adv-x="561" d="M0-31q66 51 125 121t104 159 72 200.5 27 248.5q0 131-17.5 233.5t-55.5 185.5-98.5 153.5-146.5 138.5l72 92q80-49 151.5-123.5t125-176 84-227.5 30.5-276q0-152-31.5-277.5t-86-229-128-184.5-159.5-140z"/><glyph unicode="*" horiz-adv-x="827" d="M68 924l247 172-247 178 61 102 227-164v273h111v-273l231 162 62-98-250-178 248-178-56-107-235 168v-287h-111v287l-233-166z"/><glyph unicode="+" d="M66 608v144h391v448h137v-448h391v-144h-391v-450h-137v450h-391z"/><glyph unicode="," horiz-adv-x="374" d="M68-176q35 31 67.5 72t36.5 77q-35 4-66.5 34t-31.5 83q0 45 27.5 82t82.5 37q53 0 81-41t28-96q0-51-19.5-100.5t-47-91.5-58-73-55.5-47z"/><glyph unicode="-" horiz-adv-x="567" d="M84 461v145h401v-145h-401z"/><glyph unicode="." horiz-adv-x="385" d="M84 92q0 53 30.5 85t78.5 32q49 0 78.5-32t29.5-85-29.5-84-78.5-31q-47 0-78 31t-31 84z"/><glyph unicode="/" horiz-adv-x="933" d="M0 27l819 1525 115-67-815-1532z"/><glyph unicode="0" d="M61 676q0 131 28 257t85 225 144.5 159.5 207.5 60.5q119 0 206-60.5t144.5-159.5 85-225 27.5-257-27.5-257-85-225.5-144.5-161-206-61.5q-121 0-208 61.5t-144 161-85 225.5-28 257zm164 2q0-102 17.5-202.5t54.5-180.5 93-129 136-49q78 0 134.5 49t92 129 53 180.5 17.5 202.5-17.5 201.5-53 177.5-92 126-134.5 48q-80 0-137-48t-93-126-53.5-177.5-17.5-201.5z"/><glyph unicode="1" d="M154 1081l389 271h137v-1352h-158v1165l-293-196z"/><glyph unicode="2" d="M100 1182q37 39 80 73.5t93.5 62.5 109.5 44 133 16q86 0 155.5-26.5t119-74.5 76-114.5 26.5-146.5q0-66-14.5-123t-45-110.5-77.5-105.5-111-108l-196-172q-43-37-75-68.5t-51.5-61-29.5-60.5-10-68h643v-139h-811v90q0 63 10 110.5t31.5 87.5 55.5 76.5 81 79.5l180 164q72 66 120 115t77.5 92 42 85 12.5 95q0 117-58.5 177.5t-166.5 60.5q-78 0-153-37t-169-131z"/><glyph unicode="3" d="M72 111l67 133q76-66 149.5-96.5t174.5-30.5q53 0 103 15t90 49 64.5 89.5 24.5 135.5-23.5 134-66.5 88-101 48-128 14q-41 0-72.5-3t-66.5-7v113q31 45 78 103t99 117.5 105.5 113 96.5 83.5h-574v140h752v-160q-49-31-103.5-80t-105.5-102.5-96-106.5-76-94q10 2 19.5 2h19.5q82 0 155.5-22.5t129-70.5 88-123 32.5-177q0-104-35.5-186.5t-95-138.5-140.5-87-169-31q-133 0-231.5 38t-163.5 100z"/><glyph unicode="4" d="M76 344v145l639 861h98v-869h141v-137h-141v-344h-145v344h-592zm149 137h443v592z"/><glyph unicode="5" d="M86 106l64 140q55-49 139-89t188-40q61 0 113.5 17.5t90.5 53 60.5 92 22.5 136.5q0 147-89 232t-269 85q-72 0-121-7t-84-15v639h669v-140h-524v-352q31 4 50.5 6t47.5 2q223 0 349.5-115.5t126.5-326.5q0-115-35-200t-94.5-140-141.5-83-174-28q-66 0-127 12.5t-112.5 33-90.5 43-59 44.5z"/><glyph unicode="6" d="M133 514q0 209 53.5 367.5t149.5 266 230 163 298 55.5l31-123q-98 0-188.5-24.5t-166-76.5-130-136-80.5-201q51 35 110.5 55.5t126.5 20.5q92 0 163-37t120-100.5 74.5-145.5 25.5-174-27.5-174-78.5-143.5-125-97.5-166-36q-111 0-190.5 46.5t-131 122-75 173-23.5 199.5zm160 0q0-66 12-137.5t43-131 81-97 126-37.5q61 0 106.5 26.5t76 70.5 45 99.5 14.5 112.5q0 63-16.5 121.5t-49.5 102.5-82 69.5-112 25.5q-68 0-127.5-22.5t-106.5-59.5q-6-35-8-70.5t-2-72.5z"/><glyph unicode="7" d="M115 1210v140h848v-140q-219-289-339-594t-149-616h-164q12 152 51 309.5t100.5 313 145.5 304 189 283.5h-682z"/><glyph unicode="8" d="M117 371q0 106 46 194t140 140q-76 53-121 135t-45 174 34 159.5 89 113.5 125 68.5 141 22.5q72 0 141.5-22.5t124-66.5 87-110.5 32.5-154.5q0-98-44-179t-117-138q90-47 136-138.5t46-195.5q0-100-35-175t-92-125-130-75-149-25-149.5 25-131 75-93 124.5-35.5 173.5zm149 2q0-66 23.5-114t60.5-80 83-48 93-16 93.5 15 82 47 58 79 22.5 113q0 63-22.5 112t-59 84-83 53.5-93.5 18.5-93-18.5-83-52.5-59.5-83-22.5-110zm23 641q0-59 20.5-105.5t54-77 75.5-46 85-15.5 85 16.5 76 47 54.5 76 20.5 104.5q0 57-20.5 100t-53.5 71.5-75 42-85 13.5-86-14.5-76.5-42-54-70.5-20.5-100z"/><glyph unicode="9" d="M121 928q0 92 27.5 174t79 143.5 125 97 165.5 35.5q111 0 190.5-46t131-121.5 75-173 23.5-199.5q0-209-52-370t-143.5-268.5-216.5-162.5-270-55h-24.5l-24.5 2 18 135h35q80 0 154.5 21.5t138 72.5 112 132 76.5 202q-51-35-110.5-55.5t-126.5-20.5q-92 0-163 37t-120 100.5-74.5 145.5-25.5 174zm153 4q0-66 16.5-123t49.5-101 81-70 114-26q68 0 127 22.5t106 59.5q6 35 8 71t2 73q0 66-12 137.5t-43 130.5-81 97-126 38q-61 0-106-26.5t-76-70.5-45.5-99.5-14.5-112.5z"/><glyph unicode=":" horiz-adv-x="385" d="M84 92q0 53 30.5 85t78.5 32q49 0 78.5-32t29.5-85-29.5-84-78.5-31q-47 0-78 31t-31 84zm0 768q0 53 30.5 85t78.5 32q49 0 78.5-32t29.5-85-29.5-84-78.5-31q-47 0-78 31t-31 84z"/><glyph unicode=";" horiz-adv-x="397" d="M68-176q35 31 67.5 72t36.5 77q-35 4-66.5 34t-31.5 83q0 45 27.5 82t82.5 37q53 0 81-41t28-96q0-51-19.5-100.5t-47-91.5-58-73-55.5-47zm41 1036q0 53 30.5 85t78.5 32q49 0 78.5-32t29.5-85-29.5-84-78.5-31q-47 0-78 31t-31 84z"/><glyph unicode="<" d="M104 623v118l795 320 55-137-602-238 629-256-55-147z"/><glyph unicode="=" d="M66 303v143h919v-143h-919zm0 461v141h919v-141h-919z"/><glyph unicode=">" d="M104 430l629 256-604 238 57 137 795-320v-118l-823-340z"/><glyph unicode="?" horiz-adv-x="720" d="M-23 1139q25 43 60 86t81 76.5 105.5 55 132.5 21.5q174 0 263.5-93t89.5-247q0-104-41-175.5t-109-145.5q-45-49-73.5-85t-45-66.5-22.5-57.5-6-57v-74h-144v86q0 96 45 165.5t99 129.5q68 74 105.5 131t37.5 143q0 104-53 159.5t-152 55.5q-88 0-153.5-54t-116.5-132zm259-1051q0 51 29.5 82t74.5 31q47 0 75.5-31t28.5-82-28.5-81-75.5-30q-45 0-74.5 30t-29.5 81z"/><glyph unicode="@" horiz-adv-x="1509" d="M102 479q0 174 47.5 330t138.5 271.5 227 183 314 67.5q150 0 249.5-41t157.5-105.5 81.5-141 23.5-150.5v-825h-149v59q-41-35-108.5-58.5t-141.5-23.5q-80 0-146.5 32t-114.5 90-75.5 139-27.5 179 27.5 177 76.5 134.5 115.5 85 144.5 29.5q82 0 143.5-21.5t106.5-49.5v43q0 147-88 233t-275 86q-150 0-258-60.5t-177.5-159.5-102.5-230-33-273q0-61 10.5-134t36-146.5 72.5-142 119.5-121 176-84 245.5-31.5q168 0 282.5 29.5t192.5 62.5l34-143q-33-16-86-32t-122.5-29-151.5-21.5-172-8.5q-168 0-291 39t-211 104.5-144 149.5-89 172-45.5 176.5-12.5 159.5zm627 15q0-66 14.5-123.5t42-102.5 67.5-70.5 89-25.5q80 0 141.5 20.5t106.5 55.5v473q-41 23-97.5 43t-140.5 20q-106 0-164.5-77.5t-58.5-212.5z"/><glyph unicode="A" horiz-adv-x="1105" d="M0 0l485 1366h127l494-1366h-170l-154 422h-475l-143-422h-164zm358 567h373l-188 566z"/><glyph unicode="B" horiz-adv-x="1044" d="M158 0v1366h368q197 0 295.5-94t98.5-254q0-131-71-202t-181-91q55-6 111.5-26.5t102.5-60.5 75.5-102.5 29.5-154.5q0-88-27.5-158.5t-79-120-121-76-151.5-26.5h-450zm155 141h289q98 0 158.5 60.5t60.5 183.5q0 260-301 260h-207v-504zm0 645h201q117 0 180.5 66t63.5 172q0 201-226 201h-219v-439z"/><glyph unicode="C" horiz-adv-x="1107" d="M96 678q0 190 46 326.5t121 222.5 170 126 196 40q141 0 241.5-59.5t176.5-188.5l-115-94q-27 39-55.5 74.5t-65.5 61-83 41-103 15.5q-172 0-268.5-147.5t-96.5-419.5q0-133 29.5-236.5t80-174 120-106.5 149.5-36q119 0 192.5 37t141.5 102l57-147q-25-25-63.5-49.5t-88-45-110.5-34-131-13.5q-115 0-213 40t-171 125-115 218-42 322z"/><glyph unicode="D" horiz-adv-x="1189" d="M158 0v1366h334q78 0 158.5-13.5t150.5-47.5q70-35 128-89.5t101-130 66.5-171 23.5-212.5q0-143-30.5-256.5t-86-197.5-131-139.5-163.5-81.5q-47-14-107.5-20.5t-109.5-6.5h-334zm155 141h160q41 0 95.5 5.5t101.5 23.5q57 27 109 70t91 105.5 61.5 148 22.5 200.5q0 178-51 287t-141 170q-57 39-133 56.5t-148 17.5h-168v-1084z"/><glyph unicode="E" horiz-adv-x="999" d="M158 0v1366h757v-141h-602v-439h430v-141h-432v-504h650v-141h-803z"/><glyph unicode="F" horiz-adv-x="897" d="M158 0v1366h735v-141h-580v-461h428v-141h-430v-623h-153z"/><glyph unicode="G" horiz-adv-x="1161" d="M96 678q0 193 44 328t116 221 166 126 196 40q88 0 154-18.5t117-51.5 89-78 69-98l-115-96q-59 90-127 143t-172 53q-78 0-145.5-32.5t-119-102.5-80-178.5-28.5-257.5q0-133 32-237.5t85-176.5 123.5-108.5 150.5-36.5q88 0 152.5 11t105.5 26v356h-215v143h371v-602q-57-27-169-52.5t-247-25.5q-115 0-215 40t-175 125-119 218-44 322z"/><glyph unicode="H" horiz-adv-x="1273" d="M158 0v1366h155v-592h650v592h153v-1366h-153v629h-650v-629h-155z"/><glyph unicode="I" horiz-adv-x="471" d="M158 0v1366h155v-1366h-155z"/><glyph unicode="J" horiz-adv-x="712" d="M-8 41l51 139q2-2 18.5-12t42-21.5 60.5-20.5 74-9q90 0 138 49t48 176v1024h156v-1038q0-178-86-264.5t-248-86.5q-98 0-160.5 21.5t-93.5 42.5z"/><glyph unicode="K" horiz-adv-x="1107" d="M158 2v1364h155v-596h166q57 0 99.5 27.5t85.5 124.5l194 444h168l-207-463q-33-72-67.5-113.5t-75.5-58.5q59-16 93-55t62-111l226-565h-166l-174 424q-25 57-43.5 98t-42 66.5-53 37-74.5 11.5h-191v-635h-155z"/><glyph unicode="L" horiz-adv-x="954" d="M158 0v1366h155v-1225h602v-141h-757z"/><glyph unicode="M" horiz-adv-x="1462" d="M125 0l65 1366h183l356-1116 371 1116h180l57-1366h-149l-47 1055-369-1078h-102l-357 1084-53-1061h-135z"/><glyph unicode="N" horiz-adv-x="1280" d="M158 0v1366h157l654-1018v1018h153v-1366h-114l-697 1083v-1083h-153z"/><glyph unicode="O" horiz-adv-x="1286" d="M96 684q0 133 32 260t98.5 227.5 170 161 246.5 60.5 246.5-60.5 170-161 98.5-227.5 32-260-32-261-98.5-227.5-170-161-246.5-61.5-246.5 61.5-170 161-98.5 227.5-32 261zm162 0q0-106 23.5-207.5t70.5-181.5 120-128 171-48 171 48 121 128 70.5 181.5 22.5 207.5q0 104-22.5 205.5t-69.5 181.5-120 128-173 48-173-48-120-128-69.5-181.5-22.5-205.5z"/><glyph unicode="P" horiz-adv-x="1038" d="M158 0v1366h405q223 0 330.5-104.5t107.5-309.5q0-199-113.5-301t-330.5-102h-244v-549h-155zm155 692h254q119 0 194 61.5t75 202.5-71 205-200 64h-252v-533z"/><glyph unicode="Q" horiz-adv-x="1286" d="M96 684q0 133 32 260t98.5 227.5 170 161 246.5 60.5 246.5-60.5 170-161 98.5-227.5 32-260q0-113-21.5-220.5t-68.5-199.5q96-72 150.5-136.5t82.5-102.5l-106-93q-27 35-77 90.5t-130 120.5q-66-78-160-124t-217-46q-143 0-246.5 61.5t-170 161-98.5 227.5-32 261zm162 0q0-106 23.5-207.5t70.5-181.5 120-128 171-48q78 0 138.5 29.5t107.5 82.5q-53 31-115.5 57.5t-134.5 49.5l45 135q162-51 281-121 33 72 48 157t15 175q0 104-22.5 205.5t-69.5 181.5-120 128-173 48-173-48-120-128-69.5-181.5-22.5-205.5z"/><glyph unicode="R" horiz-adv-x="1128" d="M158 0v1366h415q217 0 320.5-102.5t103.5-270.5q0-80-23.5-139t-58-99-72.5-63.5-67-32.5q37-12 63.5-34.5t45-53 32-67.5 23.5-76q12-45 28.5-101.5t32.5-115.5l56-211h-160l-55 213q-18 72-43 144.5t-43 115.5q-14 33-28.5 56.5t-36 39-51.5 22.5-73 7h-254v-598h-155zm155 739h252q271 0 271 254 0 117-67 174.5t-191 57.5h-265v-486z"/><glyph unicode="S" horiz-adv-x="1003" d="M78 109l67 145q76-63 160-100t187-37q55 0 104 13t87 42 60.5 74 22.5 108q0 57-21.5 99.5t-61.5 74-96.5 57-125.5 52.5q-68 25-132.5 57.5t-115.5 77.5-82 106.5-31 147.5q0 92 35 159.5t92.5 114 132 69 156.5 22.5q127 0 235.5-48.5t180.5-134.5l-76-118q-144 155-345 155h-3q-115 0-178.5-54t-63.5-151q0-53 19.5-91t57.5-68.5 95.5-57 132.5-57.5q76-31 141.5-63.5t115-76.5 77-105.5 27.5-149.5q0-106-36-182t-97.5-124.5-142.5-71-171-22.5q-68 0-130 12.5t-114.5 33-93.5 44-69 48.5z"/><glyph unicode="T" horiz-adv-x="993" d="M18 1225v141h959v-141h-404v-1225h-153v1225h-402z"/><glyph unicode="U" horiz-adv-x="1259" d="M150 457v909h155v-879q0-174 85-271t239-97 239.5 94 85.5 274v879h156v-909q0-121-40-211t-107.5-150.5-155.5-91.5-182-31q-100 0-187.5 31t-151 91.5-100 150.5-36.5 211z"/><glyph unicode="V" horiz-adv-x="1079" d="M0 1366h172l373-1126 370 1126h164l-465-1366h-143z"/><glyph unicode="W" horiz-adv-x="1460" d="M0 1366h158l221-1067 309 1067h115l276-1059 224 1059h157l-315-1366h-119l-289 1059-311-1059h-123z"/><glyph unicode="X" horiz-adv-x="1003" d="M0 0l403 700-368 666h188l279-537 284 537h179l-369-653 408-713h-195l-311 586-320-586h-178z"/><glyph unicode="Y" horiz-adv-x="1056" d="M0 1366h176l348-553 363 553h170l-459-709v-657h-156v655z"/><glyph unicode="Z" horiz-adv-x="1040" d="M74 0v152l731 1073h-699v141h842v-176l-712-1049h741v-141h-903z"/><glyph unicode="[" horiz-adv-x="444" d="M137-293v1800h287v-129h-148v-1540h148v-131h-287z"/><glyph unicode="\" horiz-adv-x="919" d="M0 1485l127 74 793-1498-121-84z"/><glyph unicode="]" horiz-adv-x="444" d="M20-162h148v1540h-148v129h287v-1800h-287v131z"/><glyph unicode="^" horiz-adv-x="976" d="M119 651l309 719h113l317-690-133-59-242 526-227-549z"/><glyph unicode="_" horiz-adv-x="1024" d="M0-307h1024v-144h-1024v144z"/><glyph unicode="`" horiz-adv-x="860" d="M217 1368l100 107 326-285-72-76z"/><glyph unicode="a" horiz-adv-x="915" d="M74 283q0 104 53 171.5t135 107.5 182.5 56.5 192.5 16.5v12q0 123-50 176.5t-143 53.5q-66 0-133-26t-131-77l-49 115q53 41 131 76.5t195 35.5q156 0 242.5-83.5t86.5-280.5v-637h-137l-6 84q-49-51-112.5-79t-139.5-28q-61 0-117.5 19.5t-101.5 57.5-71.5 95.5-26.5 133.5zm151-2q0-47 17.5-80t44-54.5 59.5-31 64-9.5q68 0 124 30t103 71v303q-66-2-137.5-10t-133-32-101.5-69-40-118z"/><glyph unicode="b" horiz-adv-x="1019" d="M135 51v1315h150v-420q59 29 115.5 41t109.5 12q90 0 167-33.5t133-98 88-160 32-220.5q0-117-35-211t-97.5-160.5-147.5-102.5-183-36q-106 0-190 24t-142 50zm150 88q35-16 78-26.5t83-10.5q158 0 248 106t90 284q0 88-23.5 158.5t-64.5 119.5-95 74.5-118 25.5q-47 0-97-13t-101-48v-670z"/><glyph unicode="c" horiz-adv-x="921" d="M90 485q0 137 37 235.5t97.5 161 135 91 152.5 28.5q80 0 138.5-21.5t100.5-52 67.5-65.5 39.5-63l-104-78q-45 70-97.5 111.5t-142.5 41.5q-55 0-105.5-25.5t-88-74.5-60-120.5-22.5-164.5q0-92 23.5-163.5t63.5-120.5 93-75 112-26q94 0 157 29t112 76l43-129q-53-47-138.5-75t-181.5-28q-84 0-161.5 31t-137 94.5-96.5 158.5-37 224z"/><glyph unicode="d" horiz-adv-x="1019" d="M90 498q0 94 27.5 185t84 161.5 139.5 113.5 194 43q72 0 122-11t84-25v401h150v-1366h-137l-13 80q-51-55-109.5-79t-129.5-24q-98 0-175 40t-129.5 110-80 165-27.5 206zm148-9q0-82 17-152.5t53-121.5 90.5-81 127.5-30q59 0 114.5 26t100.5 85v612q-12 8-32.5 16.5t-45 15.5-52 11-52.5 4q-82 0-142.5-32.5t-100.5-87-59-124-19-141.5z"/><glyph unicode="e" horiz-adv-x="989" d="M90 494q0 117 30 210t84 159.5 130 102 170 35.5q102 0 179-36.5t128-103 76.5-160 25.5-203.5h-675q0-184 79.5-289t231.5-105q90 0 159.5 31t125.5 78l38-129q-18-18-51-36.5t-76-34-94-26-106-10.5q-209 0-332 132.5t-123 384.5zm162 129h491q-2 63-23.5 111t-55 80-75.5 47.5-85 15.5q-92 0-160-58.5t-92-195.5z"/><glyph unicode="f" horiz-adv-x="569" d="M39 848v129h137v72q0 94 21.5 159.5t59.5 106.5 89 59.5 113 18.5q59 0 95-8.5t69-20.5l-15-131q-29 14-65.5 21.5t-71.5 7.5q-33 0-59.5-8.5t-46-32-29.5-65.5-10-109v-70h221v-129h-219v-848h-152v848h-137z"/><glyph unicode="g" horiz-adv-x="1019" d="M90 498q0 94 28.5 185t87 161.5 146.5 113.5 209 43q78 0 165-15t165-46v-944q0-90-27.5-164t-82-126-134.5-82-184-30q-55 0-107.5 8.5t-95.5 19.5-75.5 23.5-49.5 22.5l35 137q55-33 127-56t164-23q147 0 213.5 72.5t66.5 197.5v96q-51-55-109.5-78.5t-129.5-23.5q-98 0-175 38t-129.5 105.5-80 160.5-27.5 204zm148-9q0-82 17-150.5t53-117.5 90.5-76.5 127.5-27.5q59 0 114.5 25.5t100.5 84.5v617q-77 30-176 30h-6q-82 0-142.5-32.5t-100.5-87-59-124-19-141.5z"/><glyph unicode="h" horiz-adv-x="1048" d="M135 0v1366h150v-467q57 43 127.5 72.5t160.5 29.5q188 0 267.5-100t79.5-293v-608h-152v610q0 135-52 199.5t-169 64.5q-74 0-142.5-35.5t-119.5-74.5v-764h-150z"/><glyph unicode="i" horiz-adv-x="419" d="M111 1249q0 47 29.5 74t70.5 27 69.5-27 28.5-74q0-49-28.5-74.5t-69.5-25.5-70.5 25.5-29.5 74.5zm24-1249v977h152v-977h-152z"/><glyph unicode="j" horiz-adv-x="419" d="M4-281q45 31 71.5 59.5t40 57.5 16.5 59.5 3 69.5v1012h152v-1008q0-143-56.5-228t-167.5-144zm107 1530q0 47 29.5 74t70.5 27 69.5-27 28.5-74q0-49-28.5-74.5t-69.5-25.5-70.5 25.5-29.5 74.5z"/><glyph unicode="k" horiz-adv-x="921" d="M135 0v1366h150v-752h100q57 0 102 30t88 126l91 207h161l-102-225q-33-72-67.5-119t-75.5-64q57-16 92-50t63-105l164-414h-166l-110 272q-25 57-44.5 98.5t-42 66-53 35.5-75.5 11h-125v-483h-150z"/><glyph unicode="l" horiz-adv-x="507" d="M123 258v1108h149v-1133q0-68 20.5-97.5t63.5-29.5q35 0 97 29l34-117q-27-14-66.5-25t-86.5-11q-121 0-166 67.5t-45 208.5z"/><glyph unicode="m" horiz-adv-x="1611" d="M135 0v977h137l11-78q47 35 120.5 68.5t161.5 33.5q74 0 142.5-26.5t115.5-97.5q59 51 142.5 87.5t183.5 36.5q98 0 161.5-27.5t102.5-79.5 54.5-129 15.5-175v-590h-152v610q0 123-45 191.5t-164 68.5q-39 0-77.5-11t-72.5-27.5-62.5-35-47.5-34.5q10-35 14.5-73t4.5-99v-590h-150v610q0 53-9 100.5t-30.5 83-59.5 56-95 20.5q-68 0-134.5-35.5t-117.5-72.5v-762h-150z"/><glyph unicode="n" horiz-adv-x="1052" d="M135 0v977h137l11-78q57 45 131.5 73.5t160.5 28.5q193 0 271-97t78-296v-608h-150v612q0 123-52 192.5t-171 69.5q-76 0-145.5-33.5t-120.5-74.5v-766h-150z"/><glyph unicode="o" horiz-adv-x="1042" d="M90 494q0 96 26.5 187t80 162.5 135.5 114.5 190 43q106 0 188.5-44t135.5-115.5 80.5-164 27.5-188.5-27.5-188-80.5-163.5-135-116-189-44.5q-109 0-189.5 44.5t-134 117-81 165.5-27.5 190zm148 0q0-74 17-143.5t53-124 89.5-88.5 124.5-34q72 0 125 34t89 88.5 53.5 124 17.5 141.5-17.5 141-53.5 123.5-89 87.5-125 33-126-33-89-87.5-52-123-17-139.5z"/><glyph unicode="p" horiz-adv-x="1019" d="M135-387v1364h135l13-72q59 51 125.5 73.5t142.5 22.5q104 0 176-40.5t117-110.5 65.5-161 20.5-189q0-119-35-215.5t-96.5-165-146.5-105.5-185-37q-111 0-182 33v-397h-150zm150 534q23-16 62.5-29.5t90.5-13.5q74 0 137.5 27t108.5 76 70.5 122 25.5 165q0 68-13 136t-45 122.5-83 88-127 33.5q-63 0-121.5-28.5t-105.5-75.5v-623z"/><glyph unicode="q" horiz-adv-x="1026" d="M90 489q0 115 36 209.5t100.5 162 153.5 104 198 36.5q76 0 161.5-8t151.5-18v-1362h-150v418q-45-25-101-40.5t-122-15.5q-90 0-168 36t-136 102.5-91 162-33 213.5zm150-4q0-84 24.5-153.5t67.5-119.5 99-78 120-28q53 0 104.5 18.5t85.5 41.5v694q-29 6-71.5 10t-89.5 4q-61 0-123-24.5t-110-73.5-77.5-121.5-29.5-169.5z"/><glyph unicode="r" horiz-adv-x="604" d="M135 0v977h135l15-98q55 51 115.5 86.5t129.5 35.5q33 0 84-10l-18-145q-35 8-74 8-66 0-128-38t-109-85v-731h-150z"/><glyph unicode="s" horiz-adv-x="800" d="M82 88l53 127q45-39 113.5-75t161.5-36q94 0 142 37t48 117q0 39-14.5 65.5t-43 48-74.5 40-110 43.5q-139 51-196.5 113.5t-57.5 164.5q0 119 83 193.5t221 74.5q109 0 186.5-33.5t126.5-80.5l-64-113q-49 47-110.5 73.5t-136.5 26.5q-86 0-124-40.5t-38-90.5q0-33 10-55t34.5-40.5 69-37 111.5-43.5q129-47 197.5-113.5t68.5-185.5q0-70-24.5-124t-68.5-91-104.5-56.5-131.5-19.5q-61 0-113.5 11.5t-93.5 29-72 36-49 34.5z"/><glyph unicode="t" horiz-adv-x="638" d="M37 848v129h160v266h149v-266h244v-129h-246v-625q0-72 26.5-95.5t67.5-23.5q63 0 135 54l41-119q-35-25-84.5-43.5t-115.5-18.5q-104 0-160.5 56.5t-56.5 173.5v641h-160z"/><glyph unicode="u" horiz-adv-x="1046" d="M129 358v619h150v-627q0-129 56-187.5t167-58.5q72 0 142.5 32t115.5 77v764h153v-977h-139l-10 76q-57-45-123-72t-164-27q-186 0-267 94.5t-81 286.5z"/><glyph unicode="v" horiz-adv-x="868" d="M0 977h162l266-809 289 809h151l-358-977h-172z"/><glyph unicode="w" horiz-adv-x="1286" d="M0 977h162l203-760 235 760h92l232-758 202 758h160l-287-977h-137l-219 709-221-709h-135z"/><glyph unicode="x" horiz-adv-x="784" d="M0 0l311 500-297 477h166l211-354 211 354h162l-293-471 313-506h-166l-227 375-223-375h-168z"/><glyph unicode="y" horiz-adv-x="927" d="M-8-256q49 0 97 4t92 18.5 83 42 72 74.5q10 16 22.5 38t22.5 44l-365 1012h168l293-850q80 178 150.5 396t130.5 454h160q-37-141-78-278.5t-85-261.5-89-232.5-88-194.5q-39-78-81-150.5t-103.5-129-154-90-231.5-35.5z"/><glyph unicode="z" horiz-adv-x="878" d="M78 0v154l553 694h-533v129h686v-162l-555-686h570v-129h-721z"/><glyph unicode="{" horiz-adv-x="487" d="M37 641v88q72 10 118 61.5t46 151.5v305q0 139 63.5 192.5t190.5 57.5l12-104q-45-2-72.5-12.5t-42-32-18.5-54-4-77.5v-275q0-111-37-169t-125-89q88-29 125-87t37-169v-276q0-53 7-87t22.5-53.5 42-27 65.5-9.5l-12-102q-127 2-190.5 56.5t-63.5 193.5v305q0 100-46 151.5t-118 61.5z"/><glyph unicode="|" horiz-adv-x="411" d="M137-152v1663h139v-1663h-139z"/><glyph unicode="}" horiz-adv-x="487" d="M20-25q88 4 114 47.5t26 129.5v276q0 111 34.5 169t122.5 87q-88 31-122.5 89t-34.5 169v275q0 86-25.5 129t-114.5 47l13 104q127-4 190.5-57.5t63.5-192.5v-305q0-100 45-151.5t119-61.5v-88q-74-10-119-61.5t-45-151.5v-305q0-139-63.5-193.5t-190.5-56.5z"/><glyph unicode="~" horiz-adv-x="866" d="M-4 1038q16 137 83.5 215t190.5 78q78 0 126-28.5t87-61.5q33-29 64-49.5t71-20.5q66 0 91.5 47.5t33.5 116.5h127q-6-111-57-186-49-76-105.5-98.5t-99.5-22.5q-70 0-114.5 27.5t-83.5 60.5q-35 29-70 52.5t-84 23.5q-61 0-94-44t-41-110h-125z"/><glyph unicode="¡" horiz-adv-x="385" d="M88 891q0 51 28.5 80.5t76.5 29.5q45 0 74.5-29.5t29.5-80.5-29.5-82-74.5-31q-47 0-76 31t-29 82zm29-1278v948h147v-948h-147z"/><glyph unicode="¢" d="M176 690q0 86 25.5 154.5t68.5 118 102.5 79 127.5 39.5v285h106v-285q78-2 136.5-31.5t93.5-60.5l-62-108q-39 35-80 53t-88 18v-532q41 2 82 15.5t72 31.5l47-119q-35-25-91.5-43t-109.5-20v-293h-106v297q-154 23-239 131t-85 270zm150 0q0-111 45-173t129-91v524q-78-10-126-76.5t-48-183.5z"/><glyph unicode="£" d="M90 514v139h133v308q0 205 94.5 311t272.5 106q131 0 214-59t136-164l-121-94q-27 49-51.5 79.5t-52 49-59 27-68.5 12.5q-106 0-158.5-64.5t-52.5-212.5v-299h424v-139h-424v-375h569v-139h-723v514h-133z"/><glyph unicode="¤" horiz-adv-x="1200" d="M66 285l141 141q-45 59-70.5 130t-25.5 151 25.5 150.5 70.5 129.5l-141 141 94 95 143-142q59 41 130 64.5t149 23.5 148.5-23.5 129.5-66.5l144 144 94-95-142-141q96-121 97-280 0-160-97-281l142-141-94-95-142 144q-59-43-129.5-66.5t-150.5-23.5q-78 0-149 23.5t-130 66.5l-143-144zm180 422q0-104 55-193 57-86 134-119t147-33q104 0 186 58 86 57 118 136t32 151q0 109-58 190-57 86-134 120t-144 34q-82 2-146.5-33t-107.5-87-64.5-112.5-17.5-111.5z"/><glyph unicode="¥" d="M31 1350h178l315-553 330 553h170l-281-463h131v-139h-215l-63-107v-57h270v-140h-270v-444h-156v444h-278v140h278v55l-63 109h-215v139h135z"/><glyph unicode="¦" horiz-adv-x="372" d="M117-152v564h139v-564h-139zm0 1098v565h139v-565h-139z"/><glyph unicode="§" horiz-adv-x="819" d="M100 575q0 55 19.5 101.5t52.5 81.5 77 59.5 91 36.5q-37 33-68.5 61.5t-54 62.5-36 75-13.5 96q0 113 79 178.5t202 65.5q98 0 163.5-40t106.5-85l-76-99q-39 49-91 77t-106 28q-70 0-108.5-31t-38.5-94q0-61 53.5-120.5t153.5-149.5q66-59 109.5-102.5t70.5-81.5 38-77 11-90q0-96-54-161.5t-151-110.5q74-55 120-114.5t46-153.5q0-68-25.5-120t-67.5-88-97-55.5-117-19.5q-98 0-166.5 32t-113.5 75l57 114q41-45 96-72.5t119-27.5q82 0 129 39t47 106q0 35-12.5 66t-40 62.5-72.5 68.5-113 84q-102 70-160.5 142.5t-58.5 180.5zm140 3q0-78 52-131.5t146-122.5q74 29 118 80.5t44 117.5q0 35-9 62.5t-29.5 55.5-55.5 59.5-84 74.5q-80-14-131-62t-51-134z"/><glyph unicode="¨" horiz-adv-x="860" d="M156 1309q0 47 29.5 73.5t70.5 26.5 69.5-26.5 28.5-73.5q0-49-28.5-75t-69.5-26-70.5 26-29.5 75zm350 0q0 47 29.5 73.5t70.5 26.5 70-26.5 29-73.5q0-49-29-75t-70-26-70.5 26-29.5 75z"/><glyph unicode="©" horiz-adv-x="1589" d="M92 608q0 143 44 279.5t133 244 220.5 173 307.5 65.5q174 0 305-65.5t219-173 132-244 44-279.5q0-145-44-282.5t-132-245-220-173-306-65.5q-176 0-307.5 65.5t-219.5 173-132 245-44 282.5zm127 0q0-121 37-237.5t109.5-207.5 180-146.5 251.5-55.5q141 0 248.5 55.5t180 146.5 108.5 207.5 36 237.5-36 237-108.5 207-180 146-248.5 55q-143 0-252-55t-180.5-146-108.5-207-37-237zm203-4q0 123 29.5 212t81 147.5 121 86 149.5 27.5q115 0 184.5-52t108.5-122l-97-61q-31 57-76.5 91t-123.5 34q-111 0-179.5-91.5t-68.5-271.5q0-174 72.5-264t179.5-90q68 0 116 36t87 93l94-66q-47-78-118-125t-181-47q-80 0-149.5 27t-120 83-80 143-29.5 210z"/><glyph unicode="ª" horiz-adv-x="665" d="M68 977q-2 84 43 136t109.5 82 134 39 118.5 7q0 86-33.5 122t-97.5 36q-100 0-186-80l-50 94q41 35 100.5 64.5t145.5 29.5q117 0 181.5-62.5t64.5-209.5v-471h-115l-4 49q-29-23-75-45.5t-99-22.5q-45 0-87 14.5t-75.5 44.5-54 73-20.5 100zm125-2q0-61 40.5-89t83.5-28q47 0 87 19.5t69 44.5v211q-135 0-207.5-44.5t-72.5-113.5z"/><glyph unicode="«" horiz-adv-x="956" d="M29 512l379 418 100-80-283-328 310-321-93-90zm366 0l389 418 99-76-281-332 307-323-90-88z"/><glyph unicode="¬" d="M55 907v144h918v-752h-139v608h-779z"/><glyph unicode="­" horiz-adv-x="567" d="M84 461v145h401v-145h-401z"/><glyph unicode="®" horiz-adv-x="1589" d="M92 608q0 143 44 279.5t133 244 220.5 173 307.5 65.5q174 0 305-65.5t219-173 132-244 44-279.5q0-145-44-282.5t-132-245-220-173-306-65.5q-176 0-307.5 65.5t-219.5 173-132 245-44 282.5zm127 0q0-121 37-237.5t109.5-207.5 180-146.5 251.5-55.5q141 0 248.5 55.5t180 146.5 108.5 207.5 36 237.5-36 237-108.5 207-180 146-248.5 55q-143 0-252-55t-180.5-146-108.5-207-37-237zm291-444v903h293q154 0 226.5-68.5t72.5-181.5q0-117-61.5-177t-153.5-79l243-397h-141l-239 387h-117v-387h-123zm123 498h164q176-1 176 155 0 141-168 141h-172v-296z"/><glyph unicode="¯" horiz-adv-x="860" d="M143 1243v127h574v-127h-574z"/><glyph unicode="°" horiz-adv-x="706" d="M78 1071q0 57 21.5 111.5t59.5 94.5 88 64.5 107 24.5 107.5-23.5 87.5-63.5 58.5-94.5 21.5-113.5q0-61-21.5-114.5t-58.5-93.5-87-63.5-108-23.5q-57 0-107 23.5t-88 63.5-59.5 93.5-21.5 114.5zm117 0q0-37 13-67.5t34.5-54 50.5-37 61-13.5q72 0 116 52t44 120-44 120-116 52q-70 0-114.5-50t-44.5-122z"/><glyph unicode="±" d="M59 0v137h932v-137h-932zm11 768v143h391v449h137v-449h391v-143h-391v-451h-137v451h-391z"/><glyph unicode="²" horiz-adv-x="583" d="M63 1280q37 35 92.5 66.5t137.5 31.5q100 0 155.5-51t55.5-131q0-66-29-117t-94-104l-105-86q-43-35-52-54.5t-9-39.5h301v-107h-436v60q0 53 15.5 95t64.5 83l94 82q37 33 60.5 55t37 41.5 18.5 38 5 41.5q0 43-26.5 66.5t-69.5 23.5q-35 0-76-17.5t-88-64.5z"/><glyph unicode="³" horiz-adv-x="583" d="M70 754l43 94q78-66 172-66 53 0 87 29t34 82q0 70-47.5 96.5t-112.5 26.5q-39 0-76-6v82q31 45 79 95t91 79h-240v104h375v-115q-47-31-98-72.5t-82-82.5q111 0 168-57.5t57-139.5q0-104-68.5-163.5t-166.5-59.5q-66 0-124.5 21.5t-90.5 52.5z"/><glyph unicode="´" horiz-adv-x="860" d="M217 1190l326 285 100-107-352-254z"/><glyph unicode="µ" horiz-adv-x="1116" d="M158-387v1364h149v-623q0-135 58.5-192.5t169.5-57.5q92 0 151 38t84 91q14 29 16 68t2 74v602h150v-735q0-70 12.5-103t59.5-33q23 0 57 11l18-119q-23-10-52-15.5t-48-5.5q-66 0-110 26t-66 95q-59-63-122.5-92t-162.5-29q-72 0-130 24t-95 71v-459h-141z"/><glyph unicode="¶" horiz-adv-x="985" d="M68 965q0 82 29.5 155.5t80.5 128 121 86 150 31.5h139v-1663h-139v862q-80 0-149 32t-121 85-81.5 126-29.5 157zm649-1262v1663h139v-1663h-139z"/><glyph unicode="·" horiz-adv-x="561" d="M172 754q0 53 30.5 84.5t78.5 31.5q49 0 78.5-31.5t29.5-84.5-29.5-84-78.5-31q-47 0-78 30.5t-31 84.5z"/><glyph unicode="¸" horiz-adv-x="860" d="M266-356l99 266h159l-139-266h-119z"/><glyph unicode="¹" horiz-adv-x="583" d="M96 1255l193 115h96v-680h-119v537l-119-70z"/><glyph unicode="º" horiz-adv-x="780" d="M68 1139q0 70 19 138.5t59 121.5 100.5 86 142.5 33q80 0 141.5-33t101.5-87.5 60.5-122.5 20.5-140-20.5-139.5-60.5-122-101.5-87-141.5-32.5-140.5 33.5-100 88-60 123-20.5 140.5zm125 0q0-53 12-102.5t36.5-88.5 61.5-61.5 86-22.5 86 22.5 62.5 61.5 38 87.5 12.5 101.5q0 51-12.5 100t-38 87-62.5 60.5-86 22.5-86-22.5-61.5-60.5-36.5-86-12-99z"/><glyph unicode="»" horiz-adv-x="956" d="M47 199l307 323-280 332 98 76 389-418-424-401zm375 2l309 321-282 328 100 80 379-418-414-401z"/><glyph unicode="¼" horiz-adv-x="1439" d="M51 57l1241 1315 86-94-1253-1311zm45 1198l193 115h96v-680h-119v537l-119-70zm707-1118v96l333 439h95v-445h79v-90h-79v-137h-119v137h-309zm106 90h203v269z"/><glyph unicode="½" horiz-adv-x="1439" d="M-8 57l1241 1315 86-94-1253-1311zm96 1198l193 115h96v-680h-119v537l-119-70zm770-651q37 35 92.5 66.5t137.5 31.5q100 0 155.5-51t55.5-131q0-66-29-117t-94-104l-105-86q-43-35-52-54.5t-9-39.5h301v-107h-436v60q0 53 15.5 95t64.5 83l94 82q37 33 60.5 55t37 41.5 18.5 38 5 41.5q0 43-26.5 66.5t-69.5 23.5q-35 0-76-17.5t-88-64.5z"/><glyph unicode="¾" horiz-adv-x="1439" d="M107 754l43 94q78-66 172-66 53 0 87 29t34 82q0 70-47.5 96.5t-112.5 26.5q-39 0-76-6v82q31 45 79 95t91 79h-240v104h375v-115q-47-31-98-72.5t-82-82.5q111 0 168-57.5t57-139.5q0-104-68.5-163.5t-166.5-59.5q-66 0-124.5 21.5t-90.5 52.5zm16-697l1241 1315 86-94-1253-1311zm748 80v96l333 439h95v-445h79v-90h-79v-137h-119v137h-309zm106 90h203v269z"/><glyph unicode="¿" horiz-adv-x="720" d="M8-59q0 104 41 175.5t109 145.5q45 49 73.5 85t45 66.5 22.5 57.5 6 57v74h144v-86q0-96-45.5-165.5t-98.5-129.5q-68-74-105.5-131t-37.5-143q0-104 53-159.5t152-55.5q88 0 153.5 54t116.5 132l102-78q-25-43-59.5-86t-80.5-76.5-105.5-55-133.5-21.5q-174 0-263 93t-89 247zm264 950q0 51 29 80.5t76 29.5q45 0 74.5-29.5t29.5-80.5-29.5-82-74.5-31q-47 0-76 31t-29 82z"/><glyph unicode="À" horiz-adv-x="1105" d="M0 0l485 1366h127l494-1366h-170l-154 422h-475l-143-422h-164zm323 1708l100 107 326-285-72-76zm35-1141h373l-188 566z"/><glyph unicode="Á" horiz-adv-x="1105" d="M0 0l485 1366h127l494-1366h-170l-154 422h-475l-143-422h-164zm356 1530l326 285 100-107-352-254zm2-963h373l-188 566z"/><glyph unicode="Â" horiz-adv-x="1105" d="M0 0l485 1366h127l494-1366h-170l-154 422h-475l-143-422h-164zm256 1516l246 294h94l244-294-84-62-207 229-205-229zm102-949h373l-188 566z"/><glyph unicode="Ã" horiz-adv-x="1105" d="M0 0l485 1366h127l494-1366h-170l-154 422h-475l-143-422h-164zm205 1552q29 92 81 147.5t120 55.5q43 0 85-21.5t79-50.5q57-45 100-45 29 0 57.5 27t57.5 94l94-49q-31-94-83-147.5t-120-53.5q-37 0-71.5 16.5t-69.5 41.5q-84 59-123 59-35 0-59.5-27.5t-53.5-93.5zm153-985h373l-188 566z"/><glyph unicode="Ä" horiz-adv-x="1105" d="M0 0l485 1366h127l494-1366h-170l-154 422h-475l-143-422h-164zm275 1647q0 47 29.5 73.5t70.5 26.5 69.5-26.5 28.5-73.5q0-49-28.5-75t-69.5-26-70.5 26-29.5 75zm83-1080h373l-188 566zm267 1080q0 47 29.5 73.5t70.5 26.5 70-26.5 29-73.5q0-49-29-75t-70-26-70.5 26-29.5 75z"/><glyph unicode="Å" horiz-adv-x="1105" d="M0 0l485 1366h127l494-1366h-170l-154 422h-475l-143-422h-164zm352 1636q0 39 12.5 76t36 65.5 59.5 46 83 17.5 82.5-17.5 60.5-46 37-65.5 12-76q0-37-12-73.5t-37-65.5-60.5-46-82.5-17-83 17-59.5 46-36 64.5-12.5 74.5zm6-1069h373l-188 566zm80 1069q0-45 26.5-82.5t78.5-37.5q51 0 77.5 37.5t26.5 82.5q0 47-26.5 85t-77.5 38-78-38-27-85z"/><glyph unicode="Æ" horiz-adv-x="1673" d="M0 0l731 1366h858v-141h-602v-439h430v-141h-430v-504h647v-141h-803v422h-432l-225-422h-174zm477 567h354v672z"/><glyph unicode="Ç" horiz-adv-x="1107" d="M96 678q0 190 46 326.5t121 222.5 170 126 196 40q141 0 241.5-59.5t176.5-188.5l-115-94q-27 39-55.5 74.5t-65.5 61-83 41-103 15.5q-172 0-268.5-147.5t-96.5-419.5q0-133 29.5-236.5t80-174 120-106.5 149.5-36q119 0 192.5 37t141.5 102l57-147q-25-25-63.5-49.5t-88-45-110.5-34-131-13.5q-115 0-213 40t-171 125-115 218-42 322zm360-1034l99 266h159l-139-266h-119z"/><glyph unicode="È" horiz-adv-x="999" d="M158 0v1366h757v-141h-602v-439h430v-141h-432v-504h650v-141h-803zm151 1708l100 107 326-285-72-76z"/><glyph unicode="É" horiz-adv-x="999" d="M158 0v1366h757v-141h-602v-439h430v-141h-432v-504h650v-141h-803zm204 1530l326 285 100-107-352-254z"/><glyph unicode="Ê" horiz-adv-x="999" d="M158 0v1366h757v-141h-602v-439h430v-141h-432v-504h650v-141h-803zm102 1516l246 294h94l244-294-84-62-207 229-205-229z"/><glyph unicode="Ë" horiz-adv-x="999" d="M158 0v1366h757v-141h-602v-439h430v-141h-432v-504h650v-141h-803zm111 1649q0 47 29.5 73.5t70.5 26.5 69.5-26.5 28.5-73.5q0-49-28.5-75t-69.5-26-70.5 26-29.5 75zm350 0q0 47 29.5 73.5t70.5 26.5 70-26.5 29-73.5q0-49-29-75t-70-26-70.5 26-29.5 75z"/><glyph unicode="Ì" horiz-adv-x="471" d="M14 1708l100 107 326-285-72-76zm144-1708v1366h155v-1366h-155z"/><glyph unicode="Í" horiz-adv-x="471" d="M51 1530l326 285 100-107-352-254zm107-1530v1366h155v-1366h-155z"/><glyph unicode="Î" horiz-adv-x="471" d="M-33 1516l246 294h94l244-294-84-62-207 229-205-229zm191-1516v1366h155v-1366h-155z"/><glyph unicode="Ï" horiz-adv-x="471" d="M-20 1649q0 47 29.5 73.5t70.5 26.5 69.5-26.5 28.5-73.5q0-49-28.5-75t-69.5-26-70.5 26-29.5 75zm178-1649v1366h155v-1366h-155zm172 1649q0 47 29.5 73.5t70.5 26.5 70-26.5 29-73.5q0-49-29-75t-70-26-70.5 26-29.5 75z"/><glyph unicode="Ð" horiz-adv-x="1212" d="M-2 647v127h160v592h336q76 0 157.5-13.5t149.5-47.5q70-35 128-90.5t101-130 66.5-170 23.5-212.5q0-143-30.5-256.5t-86-197.5-130-139.5-162.5-81.5q-47-14-107.5-20.5t-109.5-6.5h-336v647h-160zm315-506h160q45 0 98.5 6.5t100.5 26.5q59 25 111.5 67t90 104.5 60 148 22.5 200.5q0 178-52 287t-142 170q-57 39-132 56.5t-147 17.5h-170v-451h312v-127h-312v-506z"/><glyph unicode="Ñ" horiz-adv-x="1280" d="M158 0v1366h157l654-1018v1018h153v-1366h-114l-697 1083v-1083h-153zm169 1552q29 92 81 147.5t120 55.5q43 0 85-21.5t79-50.5q57-45 100-45 29 0 57.5 27t57.5 94l94-49q-31-94-83-147.5t-120-53.5q-37 0-71.5 16.5t-69.5 41.5q-84 59-123 59-35 0-59.5-27.5t-53.5-93.5z"/><glyph unicode="Ò" horiz-adv-x="1286" d="M96 684q0 133 32 260t98.5 227.5 170 161 246.5 60.5 246.5-60.5 170-161 98.5-227.5 32-260-32-261-98.5-227.5-170-161-246.5-61.5-246.5 61.5-170 161-98.5 227.5-32 261zm162 0q0-106 23.5-207.5t70.5-181.5 120-128 171-48 171 48 121 128 70.5 181.5 22.5 207.5q0 104-22.5 205.5t-69.5 181.5-120 128-173 48-173-48-120-128-69.5-181.5-22.5-205.5zm172 1024l100 107 326-285-72-76z"/><glyph unicode="Ó" horiz-adv-x="1286" d="M96 684q0 133 32 260t98.5 227.5 170 161 246.5 60.5 246.5-60.5 170-161 98.5-227.5 32-260-32-261-98.5-227.5-170-161-246.5-61.5-246.5 61.5-170 161-98.5 227.5-32 261zm162 0q0-106 23.5-207.5t70.5-181.5 120-128 171-48 171 48 121 128 70.5 181.5 22.5 207.5q0 104-22.5 205.5t-69.5 181.5-120 128-173 48-173-48-120-128-69.5-181.5-22.5-205.5zm188 846l326 285 100-107-352-254z"/><glyph unicode="Ô" horiz-adv-x="1286" d="M96 684q0 133 32 260t98.5 227.5 170 161 246.5 60.5 246.5-60.5 170-161 98.5-227.5 32-260-32-261-98.5-227.5-170-161-246.5-61.5-246.5 61.5-170 161-98.5 227.5-32 261zm162 0q0-106 23.5-207.5t70.5-181.5 120-128 171-48 171 48 121 128 70.5 181.5 22.5 207.5q0 104-22.5 205.5t-69.5 181.5-120 128-173 48-173-48-120-128-69.5-181.5-22.5-205.5zm94 832l246 294h94l244-294-84-62-207 229-205-229z"/><glyph unicode="Õ" horiz-adv-x="1286" d="M96 684q0 133 32 260t98.5 227.5 170 161 246.5 60.5 246.5-60.5 170-161 98.5-227.5 32-260-32-261-98.5-227.5-170-161-246.5-61.5-246.5 61.5-170 161-98.5 227.5-32 261zm162 0q0-106 23.5-207.5t70.5-181.5 120-128 171-48 171 48 121 128 70.5 181.5 22.5 207.5q0 104-22.5 205.5t-69.5 181.5-120 128-173 48-173-48-120-128-69.5-181.5-22.5-205.5zm41 868q29 92 81 147.5t120 55.5q43 0 85-21.5t79-50.5q57-45 100-45 29 0 57.5 27t57.5 94l94-49q-31-94-83-147.5t-120-53.5q-37 0-71.5 16.5t-69.5 41.5q-84 59-123 59-35 0-59.5-27.5t-53.5-93.5z"/><glyph unicode="Ö" horiz-adv-x="1286" d="M96 684q0 133 32 260t98.5 227.5 170 161 246.5 60.5 246.5-60.5 170-161 98.5-227.5 32-260-32-261-98.5-227.5-170-161-246.5-61.5-246.5 61.5-170 161-98.5 227.5-32 261zm162 0q0-106 23.5-207.5t70.5-181.5 120-128 171-48 171 48 121 128 70.5 181.5 22.5 207.5q0 104-22.5 205.5t-69.5 181.5-120 128-173 48-173-48-120-128-69.5-181.5-22.5-205.5zm113 965q0 47 29.5 73.5t70.5 26.5 69.5-26.5 28.5-73.5q0-49-28.5-75t-69.5-26-70.5 26-29.5 75zm350 0q0 47 29.5 73.5t70.5 26.5 70-26.5 29-73.5q0-49-29-75t-70-26-70.5 26-29.5 75z"/><glyph unicode="×" d="M162 408l262 276-262 274 98 111 266-278 267 278 96-111-262-274 262-276-94-113-269 283-268-283z"/><glyph unicode="Ø" horiz-adv-x="1286" d="M96 684q0 133 32 260t98.5 227.5 170 161 246.5 60.5q117 0 206-41t157-113l120 160 107-94-141-187q51-98 74.5-207.5t23.5-226.5q0-133-32-261t-98.5-227.5-170-161-246.5-61.5q-100 0-180 31t-146 86l-104-139-109 98 117 154q-63 100-94 225t-31 256zm162 0q0-188 70-342l581 770q-47 63-112.5 99t-153.5 36q-100 0-173-48t-120-128-69.5-181.5-22.5-205.5zm154-467q94-98 231-98 98 0 171 48t121 128 70.5 181.5 22.5 207.5q0 74-11 146.5t-34 140.5z"/><glyph unicode="Ù" horiz-adv-x="1259" d="M150 457v909h155v-879q0-174 85-271t239-97 239.5 94 85.5 274v879h156v-909q0-121-40-211t-107.5-150.5-155.5-91.5-182-31q-100 0-187.5 31t-151 91.5-100 150.5-36.5 211zm223 1251l100 107 326-285-72-76z"/><glyph unicode="Ú" horiz-adv-x="1259" d="M150 457v909h155v-879q0-174 85-271t239-97 239.5 94 85.5 274v879h156v-909q0-121-40-211t-107.5-150.5-155.5-91.5-182-31q-100 0-187.5 31t-151 91.5-100 150.5-36.5 211zm300 1073l326 285 100-107-352-254z"/><glyph unicode="Û" horiz-adv-x="1259" d="M150 457v909h155v-879q0-174 85-271t239-97 239.5 94 85.5 274v879h156v-909q0-121-40-211t-107.5-150.5-155.5-91.5-182-31q-100 0-187.5 31t-151 91.5-100 150.5-36.5 211zm202 1059l246 294h94l244-294-84-62-207 229-205-229z"/><glyph unicode="Ü" horiz-adv-x="1259" d="M150 457v909h155v-879q0-174 85-271t239-97 239.5 94 85.5 274v879h156v-909q0-121-40-211t-107.5-150.5-155.5-91.5-182-31q-100 0-187.5 31t-151 91.5-100 150.5-36.5 211zm217 1192q0 47 29.5 73.5t70.5 26.5 69.5-26.5 28.5-73.5q0-49-28.5-75t-69.5-26-70.5 26-29.5 75zm350 0q0 47 29.5 73.5t70.5 26.5 70-26.5 29-73.5q0-49-29-75t-70-26-70.5 26-29.5 75z"/><glyph unicode="Ý" horiz-adv-x="1056" d="M0 1366h176l348-553 363 553h170l-459-709v-657h-156v655zm354 164l326 285 100-107-352-254z"/><glyph unicode="Þ" horiz-adv-x="1038" d="M158 0v1366h155v-242h234q442 0 442-411 0-199-114.5-302.5t-331.5-103.5h-230v-307h-155zm155 451h240q119 0 192.5 62t73.5 202q0 141-69.5 205.5t-198.5 64.5h-238v-534z"/><glyph unicode="ß" horiz-adv-x="1083" d="M39 848v129h135q4 205 97.5 310.5t267.5 105.5q166 0 261-100.5t95-274.5v-150h-150q-80 0-118.5-33.5t-38.5-89.5q0-66 49-103.5t143-72.5q129-47 185.5-120.5t56.5-180.5q2-78-27.5-133t-77-90-102.5-51.5-104-16.5q-68 0-119 13.5t-88 30-59.5 34-30.5 25.5l53 127q45-41 101.5-72t142.5-31q76 0 122 37t46 107-42 121-165 98q-111 41-169.5 103.5t-58.5 172.5q0 68 31 116t77 78 100.5 43 101.5 13q0 137-59.5 206t-157.5 69q-96 0-153.5-66.5t-57.5-224.5v-977h-152v848h-135z"/><glyph unicode="à" horiz-adv-x="915" d="M74 283q0 104 53 171.5t135 107.5 182.5 56.5 192.5 16.5v12q0 123-50 176.5t-143 53.5q-66 0-133-26t-131-77l-49 115q53 41 131 76.5t195 35.5q156 0 242.5-83.5t86.5-280.5v-637h-137l-6 84q-49-51-112.5-79t-139.5-28q-61 0-117.5 19.5t-101.5 57.5-71.5 95.5-26.5 133.5zm143 1085l100 107 326-285-72-76zm8-1087q0-47 17.5-80t44-54.5 59.5-31 64-9.5q68 0 124 30t103 71v303q-66-2-137.5-10t-133-32-101.5-69-40-118z"/><glyph unicode="á" horiz-adv-x="915" d="M74 283q0 104 53 171.5t135 107.5 182.5 56.5 192.5 16.5v12q0 123-50 176.5t-143 53.5q-66 0-133-26t-131-77l-49 115q53 41 131 76.5t195 35.5q156 0 242.5-83.5t86.5-280.5v-637h-137l-6 84q-49-51-112.5-79t-139.5-28q-61 0-117.5 19.5t-101.5 57.5-71.5 95.5-26.5 133.5zm151-2q0-47 17.5-80t44-54.5 59.5-31 64-9.5q68 0 124 30t103 71v303q-66-2-137.5-10t-133-32-101.5-69-40-118zm62 909l326 285 100-107-352-254z"/><glyph unicode="â" horiz-adv-x="915" d="M74 283q0 104 53 171.5t135 107.5 182.5 56.5 192.5 16.5v12q0 123-50 176.5t-143 53.5q-66 0-133-26t-131-77l-49 115q53 41 131 76.5t195 35.5q156 0 242.5-83.5t86.5-280.5v-637h-137l-6 84q-49-51-112.5-79t-139.5-28q-61 0-117.5 19.5t-101.5 57.5-71.5 95.5-26.5 133.5zm88 893l246 294h94l244-294-84-62-207 229-205-229zm63-895q0-47 17.5-80t44-54.5 59.5-31 64-9.5q68 0 124 30t103 71v303q-66-2-137.5-10t-133-32-101.5-69-40-118z"/><glyph unicode="ã" horiz-adv-x="915" d="M74 283q0 104 53 171.5t135 107.5 182.5 56.5 192.5 16.5v12q0 123-50 176.5t-143 53.5q-66 0-133-26t-131-77l-49 115q53 41 131 76.5t195 35.5q156 0 242.5-83.5t86.5-280.5v-637h-137l-6 84q-49-51-112.5-79t-139.5-28q-61 0-117.5 19.5t-101.5 57.5-71.5 95.5-26.5 133.5zm51 929q29 92 81 147.5t120 55.5q43 0 85-21.5t79-50.5q57-45 100-45 29 0 57.5 27t57.5 94l94-49q-31-94-83-147.5t-120-53.5q-37 0-71.5 16.5t-69.5 41.5q-84 59-123 59-35 0-59.5-27.5t-53.5-93.5zm100-931q0-47 17.5-80t44-54.5 59.5-31 64-9.5q68 0 124 30t103 71v303q-66-2-137.5-10t-133-32-101.5-69-40-118z"/><glyph unicode="ä" horiz-adv-x="915" d="M74 283q0 104 53 171.5t135 107.5 182.5 56.5 192.5 16.5v12q0 123-50 176.5t-143 53.5q-66 0-133-26t-131-77l-49 115q53 41 131 76.5t195 35.5q156 0 242.5-83.5t86.5-280.5v-637h-137l-6 84q-49-51-112.5-79t-139.5-28q-61 0-117.5 19.5t-101.5 57.5-71.5 95.5-26.5 133.5zm111 1026q0 47 29.5 73.5t70.5 26.5 69.5-26.5 28.5-73.5q0-49-28.5-75t-69.5-26-70.5 26-29.5 75zm40-1028q0-47 17.5-80t44-54.5 59.5-31 64-9.5q68 0 124 30t103 71v303q-66-2-137.5-10t-133-32-101.5-69-40-118zm310 1028q0 47 29.5 73.5t70.5 26.5 70-26.5 29-73.5q0-49-29-75t-70-26-70.5 26-29.5 75z"/><glyph unicode="å" horiz-adv-x="915" d="M74 283q0 104 53 171.5t135 107.5 182.5 56.5 192.5 16.5v12q0 123-50 176.5t-143 53.5q-66 0-133-26t-131-77l-49 115q53 41 131 76.5t195 35.5q156 0 242.5-83.5t86.5-280.5v-637h-137l-6 84q-49-51-112.5-79t-139.5-28q-61 0-117.5 19.5t-101.5 57.5-71.5 95.5-26.5 133.5zm151-2q0-47 17.5-80t44-54.5 59.5-31 64-9.5q68 0 124 30t103 71v303q-66-2-137.5-10t-133-32-101.5-69-40-118zm47 1015q0 39 12.5 76t36 65.5 59.5 46 83 17.5 82.5-17.5 60.5-46 37-65.5 12-76q0-37-12-73.5t-37-65.5-60.5-46-82.5-17-83 17-59.5 46-36 64.5-12.5 74.5zm86 0q0-45 26.5-82.5t78.5-37.5q51 0 77.5 37.5t26.5 82.5q0 47-26.5 85t-77.5 38-78-38-27-85z"/><glyph unicode="æ" horiz-adv-x="1507" d="M74 283q0 98 44 163.5t114.5 104.5 157.5 55.5 173 16.5h74v30q0 117-52.5 170.5t-140.5 53.5q-66 0-133-26t-131-77l-49 115q53 41 131 76.5t195 35.5q104 0 173.5-37.5t106.5-123.5q47 74 126 117.5t188 43.5q98 0 169.5-36.5t118.5-103 70-160 23-203.5h-660q0-184 80-289t231-105q90 0 151.5 31t117.5 78l39-129q-39-35-120-71t-192-36q-123 0-214 42t-146 131q-16-31-44-62t-66-55.5-88-40-113-15.5q-68 0-129.5 20.5t-106.5 59.5-71.5 95.5-26.5 130.5zm151-2q0-86 48.5-130.5t136.5-44.5q111 0 169 51.5t58 137.5v205h-57q-70 0-134.5-9.5t-113.5-34-78-66.5-29-109zm561 342h476q-2 63-20.5 111t-49.5 80-71 47.5-83 15.5q-92 0-159.5-58.5t-92.5-195.5z"/><glyph unicode="ç" horiz-adv-x="921" d="M90 485q0 137 37 235.5t97.5 161 135 91 152.5 28.5q80 0 138.5-21.5t100.5-52 67.5-65.5 39.5-63l-104-78q-45 70-97.5 111.5t-142.5 41.5q-55 0-105.5-25.5t-88-74.5-60-120.5-22.5-164.5q0-92 23.5-163.5t63.5-120.5 93-75 112-26q94 0 157 29t112 76l43-129q-53-47-138.5-75t-181.5-28q-84 0-161.5 31t-137 94.5-96.5 158.5-37 224zm254-841l99 266h159l-139-266h-119z"/><glyph unicode="è" horiz-adv-x="989" d="M90 494q0 117 30 210t84 159.5 130 102 170 35.5q102 0 179-36.5t128-103 76.5-160 25.5-203.5h-675q0-184 79.5-289t231.5-105q90 0 159.5 31t125.5 78l38-129q-18-18-51-36.5t-76-34-94-26-106-10.5q-209 0-332 132.5t-123 384.5zm162 129h491q-2 63-23.5 111t-55 80-75.5 47.5-85 15.5q-92 0-160-58.5t-92-195.5zm18 745l100 107 326-285-72-76z"/><glyph unicode="é" horiz-adv-x="989" d="M90 494q0 117 30 210t84 159.5 130 102 170 35.5q102 0 179-36.5t128-103 76.5-160 25.5-203.5h-675q0-184 79.5-289t231.5-105q90 0 159.5 31t125.5 78l38-129q-18-18-51-36.5t-76-34-94-26-106-10.5q-209 0-332 132.5t-123 384.5zm162 129h491q-2 63-23.5 111t-55 80-75.5 47.5-85 15.5q-92 0-160-58.5t-92-195.5zm59 567l326 285 100-107-352-254z"/><glyph unicode="ê" horiz-adv-x="989" d="M90 494q0 117 30 210t84 159.5 130 102 170 35.5q102 0 179-36.5t128-103 76.5-160 25.5-203.5h-675q0-184 79.5-289t231.5-105q90 0 159.5 31t125.5 78l38-129q-18-18-51-36.5t-76-34-94-26-106-10.5q-209 0-332 132.5t-123 384.5zm131 682l246 294h94l244-294-84-62-207 229-205-229zm31-553h491q-2 63-23.5 111t-55 80-75.5 47.5-85 15.5q-92 0-160-58.5t-92-195.5z"/><glyph unicode="ë" horiz-adv-x="989" d="M90 494q0 117 30 210t84 159.5 130 102 170 35.5q102 0 179-36.5t128-103 76.5-160 25.5-203.5h-675q0-184 79.5-289t231.5-105q90 0 159.5 31t125.5 78l38-129q-18-18-51-36.5t-76-34-94-26-106-10.5q-209 0-332 132.5t-123 384.5zm148 815q0 47 29.5 73.5t70.5 26.5 69.5-26.5 28.5-73.5q0-49-28.5-75t-69.5-26-70.5 26-29.5 75zm14-686h491q-2 63-23.5 111t-55 80-75.5 47.5-85 15.5q-92 0-160-58.5t-92-195.5zm336 686q0 47 29.5 73.5t70.5 26.5 70-26.5 29-73.5q0-49-29-75t-70-26-70.5 26-29.5 75z"/><glyph unicode="ì" horiz-adv-x="417" d="M2 1368l100 107 326-285-72-76zm133-1368v977h150v-977h-150z"/><glyph unicode="í" horiz-adv-x="417" d="M24 1190l326 285 100-107-352-254zm111-1190v977h150v-977h-150z"/><glyph unicode="î" horiz-adv-x="417" d="M-70 1176l246 294h94l244-294-84-62-207 229-205-229zm205-1176v977h150v-977h-150z"/><glyph unicode="ï" horiz-adv-x="417" d="M-51 1309q0 47 29.5 73.5t70.5 26.5 69.5-26.5 28.5-73.5q0-49-28.5-75t-69.5-26-70.5 26-29.5 75zm186-1309v977h150v-977h-150zm164 1309q0 47 29.5 73.5t70.5 26.5 70-26.5 29-73.5q0-49-29-75t-70-26-70.5 26-29.5 75z"/><glyph unicode="ð" horiz-adv-x="1044" d="M90 494q0 119 32 213t89 159.5 137 100 176 34.5q76 0 124-17t83-34q-25 63-66.5 121.5t-95.5 108.5l-237-109-72 78 223 102q-82 59-151 90l123 64q29-16 69.5-39t83.5-57l215 100 72-78-205-94q51-51 99.5-117.5t85-151.5 58-189.5 21.5-231.5q0-150-34.5-257.5t-93-177-136.5-102.5-164-33q-92 0-171 35t-138 100.5-93 162-34 219.5zm150 0q0-186 81.5-288t204.5-102q57 0 108.5 25t90.5 78 60.5 136 21.5 202q0 78-12.5 148.5t-26.5 111.5q-47 27-106.5 49.5t-135.5 22.5q-129 0-207.5-99.5t-78.5-283.5z"/><glyph unicode="ñ" horiz-adv-x="1052" d="M135 0v977h137l11-78q57 45 131.5 73.5t160.5 28.5q193 0 271-97t78-296v-608h-150v612q0 123-52 192.5t-171 69.5q-76 0-145.5-33.5t-120.5-74.5v-766h-150zm70 1212q29 92 81 147.5t120 55.5q43 0 85-21.5t79-50.5q57-45 100-45 29 0 57.5 27t57.5 94l94-49q-31-94-83-147.5t-120-53.5q-37 0-71.5 16.5t-69.5 41.5q-84 59-123 59-35 0-59.5-27.5t-53.5-93.5z"/><glyph unicode="ò" horiz-adv-x="1042" d="M90 494q0 96 26.5 187t80 162.5 135.5 114.5 190 43q106 0 188.5-44t135.5-115.5 80.5-164 27.5-188.5-27.5-188-80.5-163.5-135-116-189-44.5q-109 0-189.5 44.5t-134 117-81 165.5-27.5 190zm148 0q0-74 17-143.5t53-124 89.5-88.5 124.5-34q72 0 125 34t89 88.5 53.5 124 17.5 141.5-17.5 141-53.5 123.5-89 87.5-125 33-126-33-89-87.5-52-123-17-139.5zm28 874l100 107 326-285-72-76z"/><glyph unicode="ó" horiz-adv-x="1042" d="M90 494q0 96 26.5 187t80 162.5 135.5 114.5 190 43q106 0 188.5-44t135.5-115.5 80.5-164 27.5-188.5-27.5-188-80.5-163.5-135-116-189-44.5q-109 0-189.5 44.5t-134 117-81 165.5-27.5 190zm148 0q0-74 17-143.5t53-124 89.5-88.5 124.5-34q72 0 125 34t89 88.5 53.5 124 17.5 141.5-17.5 141-53.5 123.5-89 87.5-125 33-126-33-89-87.5-52-123-17-139.5zm83 696l326 285 100-107-352-254z"/><glyph unicode="ô" horiz-adv-x="1042" d="M90 494q0 96 26.5 187t80 162.5 135.5 114.5 190 43q106 0 188.5-44t135.5-115.5 80.5-164 27.5-188.5-27.5-188-80.5-163.5-135-116-189-44.5q-109 0-189.5 44.5t-134 117-81 165.5-27.5 190zm127 682l246 294h94l244-294-84-62-207 229-205-229zm21-682q0-74 17-143.5t53-124 89.5-88.5 124.5-34q72 0 125 34t89 88.5 53.5 124 17.5 141.5-17.5 141-53.5 123.5-89 87.5-125 33-126-33-89-87.5-52-123-17-139.5z"/><glyph unicode="õ" horiz-adv-x="1042" d="M90 494q0 96 26.5 187t80 162.5 135.5 114.5 190 43q106 0 188.5-44t135.5-115.5 80.5-164 27.5-188.5-27.5-188-80.5-163.5-135-116-189-44.5q-109 0-189.5 44.5t-134 117-81 165.5-27.5 190zm88 718q29 92 81 147.5t120 55.5q43 0 85-21.5t79-50.5q57-45 100-45 29 0 57.5 27t57.5 94l94-49q-31-94-83-147.5t-120-53.5q-37 0-71.5 16.5t-69.5 41.5q-84 59-123 59-35 0-59.5-27.5t-53.5-93.5zm60-718q0-74 17-143.5t53-124 89.5-88.5 124.5-34q72 0 125 34t89 88.5 53.5 124 17.5 141.5-17.5 141-53.5 123.5-89 87.5-125 33-126-33-89-87.5-52-123-17-139.5z"/><glyph unicode="ö" horiz-adv-x="1042" d="M90 494q0 96 26.5 187t80 162.5 135.5 114.5 190 43q106 0 188.5-44t135.5-115.5 80.5-164 27.5-188.5-27.5-188-80.5-163.5-135-116-189-44.5q-109 0-189.5 44.5t-134 117-81 165.5-27.5 190zm148 0q0-74 17-143.5t53-124 89.5-88.5 124.5-34q72 0 125 34t89 88.5 53.5 124 17.5 141.5-17.5 141-53.5 123.5-89 87.5-125 33-126-33-89-87.5-52-123-17-139.5zm16 815q0 47 29.5 73.5t70.5 26.5 69.5-26.5 28.5-73.5q0-49-28.5-75t-69.5-26-70.5 26-29.5 75zm350 0q0 47 29.5 73.5t70.5 26.5 70-26.5 29-73.5q0-49-29-75t-70-26-70.5 26-29.5 75z"/><glyph unicode="÷" d="M66 608v144h919v-144h-919zm350-286q0 53 30.5 84.5t77.5 31.5q49 0 79-31.5t30-84.5-30-84-79-31q-47 0-77.5 30.5t-30.5 84.5zm0 731q0 53 30.5 84.5t77.5 31.5q49 0 79-31.5t30-84.5-30-84-79-31q-47 0-77.5 30.5t-30.5 84.5z"/><glyph unicode="ø" horiz-adv-x="1042" d="M90 494q0 96 26.5 187t80 162.5 135.5 114.5 190 43q96 0 180-38l93 163 104-65-96-170q78-74 114.5-179.5t36.5-222.5q0-96-27.5-188t-80.5-163.5-135-116-189-44.5q-113 0-194 48l-95-166-104 71 96 176q-68 74-101.5 175.5t-33.5 212.5zm148 0q0-70 15-135.5t46-118.5l340 608q-53 29-117 29-72 0-126-33t-89-87.5-52-123-17-139.5zm153-353q29-16 59.5-26.5t71.5-10.5q72 0 125 34t89 88.5 53.5 124 17.5 141.5q0 74-18.5 144.5t-55.5 123.5z"/><glyph unicode="ù" horiz-adv-x="1046" d="M129 358v619h150v-627q0-129 56-187.5t167-58.5q72 0 142.5 32t115.5 77v764h153v-977h-139l-10 76q-57-45-123-72t-164-27q-186 0-267 94.5t-81 286.5zm135 1010l100 107 326-285-72-76z"/><glyph unicode="ú" horiz-adv-x="1046" d="M129 358v619h150v-627q0-129 56-187.5t167-58.5q72 0 142.5 32t115.5 77v764h153v-977h-139l-10 76q-57-45-123-72t-164-27q-186 0-267 94.5t-81 286.5zm221 832l326 285 100-107-352-254z"/><glyph unicode="û" horiz-adv-x="1046" d="M129 358v619h150v-627q0-129 56-187.5t167-58.5q72 0 142.5 32t115.5 77v764h153v-977h-139l-10 76q-57-45-123-72t-164-27q-186 0-267 94.5t-81 286.5zm108 818l246 294h94l244-294-84-62-207 229-205-229z"/><glyph unicode="ü" horiz-adv-x="1046" d="M129 358v619h150v-627q0-129 56-187.5t167-58.5q72 0 142.5 32t115.5 77v764h153v-977h-139l-10 76q-57-45-123-72t-164-27q-186 0-267 94.5t-81 286.5zm125 951q0 47 29.5 73.5t70.5 26.5 69.5-26.5 28.5-73.5q0-49-28.5-75t-69.5-26-70.5 26-29.5 75zm350 0q0 47 29.5 73.5t70.5 26.5 70-26.5 29-73.5q0-49-29-75t-70-26-70.5 26-29.5 75z"/><glyph unicode="ý" horiz-adv-x="927" d="M-8-256q49 0 97 4t92 18.5 83 42 72 74.5q10 16 22.5 38t22.5 44l-365 1012h168l293-850q80 178 150.5 396t130.5 454h160q-37-141-78-278.5t-85-261.5-89-232.5-88-194.5q-39-78-81-150.5t-103.5-129-154-90-231.5-35.5zm313 1446l326 285 100-107-352-254z"/><glyph unicode="þ" horiz-adv-x="1021" d="M135-387v1753h148v-459q53 43 123.5 68.5t146.5 25.5q104 0 176-40.5t117-110.5 65.5-161 20.5-189q0-119-35-215.5t-96.5-165-146.5-105.5-185-37q-53 0-100 8.5t-82 24.5v-397h-152zm152 534q23-16 61.5-29.5t91.5-13.5q74 0 137.5 27t108.5 76 70.5 122 25.5 165q0 68-13 136t-45 122.5-83 88-127 33.5q-63 0-121.5-28.5t-105.5-75.5v-623z"/><glyph unicode="ÿ" horiz-adv-x="927" d="M-8-256q49 0 97 4t92 18.5 83 42 72 74.5q10 16 22.5 38t22.5 44l-365 1012h168l293-850q80 178 150.5 396t130.5 454h160q-37-141-78-278.5t-85-261.5-89-232.5-88-194.5q-39-78-81-150.5t-103.5-129-154-90-231.5-35.5zm223 1565q0 47 29.5 73.5t70.5 26.5 69.5-26.5 28.5-73.5q0-49-28.5-75t-69.5-26-70.5 26-29.5 75zm350 0q0 47 29.5 73.5t70.5 26.5 70-26.5 29-73.5q0-49-29-75t-70-26-70.5 26-29.5 75z"/><glyph unicode="Œ" horiz-adv-x="1730" d="M96 702q0 324 179.5 494t512.5 170h859v-141h-603v-439h431v-141h-431v-504h648v-141h-904q-166 0-293.5 48t-217 139.5-135.5 221.5-46 293zm162-8q0-276 140.5-414.5t396.5-138.5h92v1084h-101q-254 0-391-132t-137-399z"/><glyph unicode="œ" horiz-adv-x="1691" d="M90 494q0 96 26.5 187t80 162.5 135.5 114.5 190 43q127 0 214-60t132-159q49 104 134 161.5t204 57.5q102 0 179-36.5t128.5-103 77-160 25.5-203.5h-676q0-184 80-289t231-105q90 0 160 31t125 78l39-129q-18-18-51-36.5t-76-34-94-26-107-10.5q-135 0-234.5 58.5t-146.5 163.5q-49-98-132-160t-212-62q-109 0-189.5 44.5t-134 117-81 165.5-27.5 190zm148 0q0-74 17-143.5t53-124 89.5-88.5 124.5-34q72 0 125 34t89 88.5 53.5 124 17.5 141.5-17.5 141-53.5 123.5-89 87.5-125 33-126-33-89-87.5-52-123-17-139.5zm716 129h492q-2 63-23.5 111t-55.5 80-76 47.5-85 15.5q-92 0-159.5-58.5t-92.5-195.5z"/><glyph unicode="Ÿ" horiz-adv-x="1056" d="M0 1366h176l348-553 363 553h170l-459-709v-657h-156v655zm258 283q0 47 29.5 73.5t70.5 26.5 69.5-26.5 28.5-73.5q0-49-28.5-75t-69.5-26-70.5 26-29.5 75zm350 0q0 47 29.5 73.5t70.5 26.5 70-26.5 29-73.5q0-49-29-75t-70-26-70.5 26-29.5 75z"/><glyph unicode="ˆ" horiz-adv-x="860" d="M137 1176l246 294h94l244-294-84-62-207 229-205-229z"/><glyph unicode="˜" horiz-adv-x="860" d="M94 1212q29 92 81 147.5t120 55.5q43 0 85-21.5t79-50.5q57-45 100-45 29 0 57.5 27t57.5 94l94-49q-31-94-83-147.5t-120-53.5q-37 0-71.5 16.5t-69.5 41.5q-84 59-123 59-35 0-59.5-27.5t-53.5-93.5z"/><glyph horiz-adv-x="920"/><glyph horiz-adv-x="1841"/><glyph horiz-adv-x="920"/><glyph horiz-adv-x="1841"/><glyph horiz-adv-x="613"/><glyph horiz-adv-x="460"/><glyph horiz-adv-x="306"/><glyph horiz-adv-x="306"/><glyph horiz-adv-x="230"/><glyph horiz-adv-x="368"/><glyph horiz-adv-x="102"/><glyph unicode="‐" horiz-adv-x="567" d="M84 461v145h401v-145h-401z"/><glyph unicode="‑" horiz-adv-x="567" d="M84 461v145h401v-145h-401z"/><glyph unicode="‒" horiz-adv-x="567" d="M84 461v145h401v-145h-401z"/><glyph unicode="–" horiz-adv-x="1024" d="M0 463v147h1026v-147h-1026z"/><glyph unicode="—" horiz-adv-x="2048" d="M0 463v147h2048v-147h-2048z"/><glyph unicode="‘" horiz-adv-x="372" d="M78 1055q0 45 15.5 91t41 87 57 75.5 66.5 57.5l45-63q-14-12-31.5-29t-33-37-26.5-41.5-13-42.5q35-4 66.5-33.5t31.5-83.5q0-45-27.5-81.5t-83.5-36.5q-31 0-52 12t-33.5 32.5-17.5 45-5 47.5z"/><glyph unicode="’" horiz-adv-x="372" d="M68 981q41 37 70.5 73t33.5 76q-35 4-66.5 34t-31.5 83q0 45 27.5 82t82.5 37q53 0 81-41t28-96q0-53-19.5-102.5t-47-90.5-58-71.5-55.5-46.5z"/><glyph unicode="‚" horiz-adv-x="372" d="M68-156q35 31 67.5 72t36.5 78q-35 4-66.5 33.5t-31.5 83.5q0 45 27.5 81.5t82.5 36.5q53 0 81-41t28-96q0-84-55-172-27-45-58.5-78.5t-66.5-60.5z"/><glyph unicode="“" horiz-adv-x="718" d="M78 1055q0 45 15.5 91t41 87 57 75.5 66.5 57.5l45-63q-14-12-31.5-29t-33-37-26.5-41.5-13-42.5q35-4 66.5-33.5t31.5-83.5q0-45-27.5-81.5t-83.5-36.5q-31 0-52 12t-33.5 32.5-17.5 45-5 47.5zm346 0q0 45 15.5 91t41 87 57 75.5 66.5 57.5l45-63q-14-12-31.5-29t-33-37-26.5-41.5-13-42.5q35-4 66.5-33.5t31.5-83.5q0-45-27.5-81.5t-83.5-36.5q-31 0-52 12t-33.5 32.5-17.5 45-5 47.5z"/><glyph unicode="”" horiz-adv-x="718" d="M68 981q41 37 70.5 73t33.5 76q-35 4-66.5 34t-31.5 83q0 45 27.5 82t82.5 37q53 0 81-41t28-96q0-53-19.5-102.5t-47-90.5-58-71.5-55.5-46.5zm346 0q41 37 70.5 73t33.5 76q-35 4-66.5 34t-31.5 83q0 45 27.5 82t82.5 37q53 0 81-41t28-96q0-53-19.5-102.5t-47-90.5-58-71.5-55.5-46.5z"/><glyph unicode="„" horiz-adv-x="718" d="M68-156q35 31 67.5 72t36.5 78q-35 4-66.5 33.5t-31.5 83.5q0 45 27.5 81.5t82.5 36.5q53 0 81-41t28-96q0-84-55-172-27-45-58.5-78.5t-66.5-60.5zm346 0q35 31 67.5 72t36.5 78q-35 4-66.5 33.5t-31.5 83.5q0 45 27.5 81.5t82.5 36.5q53 0 81-41t28-96q0-84-55-172-27-45-58.5-78.5t-66.5-60.5z"/><glyph unicode="•" horiz-adv-x="948" d="M98 793q0 82 29 154.5t80 125.5 119.5 85 148.5 32q78 0 146.5-32t119-85 80-125.5 29.5-154.5-29.5-154-80-126-119-85-146.5-31-146.5 31-119.5 84-81 125-30 156z"/><glyph unicode="…" horiz-adv-x="1079" d="M82 92q0 53 30.5 85t78.5 32q49 0 78.5-32t29.5-85-29.5-84-78.5-31q-47 0-78 31t-31 84zm350 0q0 53 30.5 85t78.5 32q49 0 78.5-32t29.5-85-29.5-84-78.5-31q-47 0-78 31t-31 84zm361 0q0 53 30.5 85t78.5 32q49 0 78.5-32t29.5-85-29.5-84-78.5-31q-47 0-78 31t-31 84z"/><glyph horiz-adv-x="368"/><glyph unicode="‹" horiz-adv-x="581" d="M29 512l379 418 100-80-283-328 310-321-93-90z"/><glyph unicode="›" horiz-adv-x="581" d="M47 201l309 321-282 328 102 80 377-418-414-401z"/><glyph horiz-adv-x="460"/><glyph unicode="€" d="M76 461v139h676v-139h-355q16-174 91-256t196-82q90 0 153.5 39t110.5 88l68-133q-23-23-54.5-47.5t-74.5-45-97.5-34-119.5-13.5q-184 0-299 121t-140 363h-155zm0 280v142h155q25 236 133.5 365.5t299.5 129.5q76 0 133-19.5t99-49 70.5-65.5 51.5-68l-98-107q-49 70-106.5 116t-151.5 46q-129 0-190.5-89t-76.5-259h357v-142h-676z"/><glyph unicode="™" horiz-adv-x="1206" d="M37 1264v102h418v-102h-156v-486h-106v486h-156zm508-486v588h117l165-444 158 444h115v-588h-109v346l-129-350h-74l-135 361v-357h-108z"/><glyph unicode="◼" horiz-adv-x="972" d="M0 0v973h973v-973h-973z"/></font>
</defs>
</svg>
