<svg xmlns="http://www.w3.org/2000/svg"><defs><font horiz-adv-x="1026"><font-face units-per-em="2048" ascent="1638" descent="-410"/><glyph horiz-adv-x="1945"/><glyph horiz-adv-x="1945"/><glyph horiz-adv-x="1024"/><glyph horiz-adv-x="419"/><glyph horiz-adv-x="419"/><glyph horiz-adv-x="419"/><glyph unicode="!" horiz-adv-x="342" d="M92 66q0 41 22.5 63.5t57.5 22.5 58.5-23 23.5-63q0-41-23.5-65t-58.5-24-57.5 24-22.5 65zm29 358v942h102v-942h-102z"/><glyph unicode=""" horiz-adv-x="561" d="M104 760v606h97v-606h-97zm256 0v606h99v-606h-99z"/><glyph unicode="#" horiz-adv-x="1132" d="M10 506v96h328v305h-328v94h328v365h92v-365h272v365h95v-365h325v-94h-325v-305h325v-96h-325v-354h-95v354h-272v-354h-92v354h-328zm420 96h272v305h-272v-305z"/><glyph unicode="$" d="M102 141l68 84q47-59 127-102t166-45v608q-70 31-129.5 64.5t-103.5 77.5-68.5 101.5-24.5 133.5 25.5 135 71 99 104.5 62.5 125 24.5v252h90v-252q119-4 201-56t129-118l-68-65q-47 59-111.5 99t-150.5 44v-520q88-41 152.5-81t106.5-88 62.5-109.5 20.5-143.5q0-154-89-253t-253-113v-254h-90v254q-66 2-121 17t-100 37.5-80 51.5-60 55zm140 936q0-59 15-100t44-73 70-56.5 92-48.5v489q-104-4-162.5-61.5t-58.5-149.5zm311-999q111 10 173 78.5t62 185.5q0 57-13 102t-41.5 81-73 67-107.5 61v-575z"/><glyph unicode="%" horiz-adv-x="1394" d="M57 57l1211 1319 63-67-1210-1323zm6 1022q0 61 21.5 116.5t58.5 95.5 87.5 63.5 109.5 23.5q57 0 107.5-23.5t87-63.5 58-95.5 21.5-116.5q0-63-21.5-117.5t-58-95.5-87-64.5-107.5-23.5q-59 0-109.5 23.5t-87.5 64.5-58.5 95.5-21.5 117.5zm89 0q0-45 14-84t38.5-68.5 58.5-46 75-16.5q39 0 73.5 16.5t59.5 46 39 68.5 14 84-14 84-39 68-59.5 45-73.5 16q-41 0-75-16t-58.5-45-38.5-68-14-84zm632-792q0 61 21.5 116.5t58.5 95.5 87 63.5 108 23.5q59 0 110.5-23.5t88-63.5 58-95.5 21.5-116.5q0-63-21.5-117.5t-58-95.5-88-64.5-110.5-23.5q-57 0-107.5 23.5t-87.5 64.5-58.5 95-21.5 118zm90 0q0-43 14.5-82t39-69 58.5-46 73-16 72.5 16 59.5 46 40 69 14 82q0 45-14 84t-40 68.5-59.5 46-72.5 16.5-73-16.5-58.5-46-39-68.5-14.5-84z"/><glyph unicode="&" horiz-adv-x="1134" d="M51 350q0 147 79 256t214 185l62 34q-47 66-88.5 142.5t-41.5 154.5q0 117 79 186.5t210 69.5q98 0 174-45t121-157l-74-52q-41 92-95 131t-126 39q-86 0-136-48t-50-120q0-35 13.5-73.5t32.5-74.5 38.5-65.5 32.5-46.5l299-446 215 373 71-54-225-397 234-342h-113l-170 252q-76-135-171-205t-224-70q-88 0-155 29t-113 80-69.5 118.5-23.5 145.5zm101 4q0-59 17-111.5t51-91 83.5-61 112.5-22.5q100 0 180 67.5t147 192.5l-292 426-56-31q-113-63-178-151.5t-65-217.5z"/><glyph unicode="'" horiz-adv-x="303" d="M104 760v606h95v-606h-95z"/><glyph unicode="(" horiz-adv-x="520" d="M92 700q0 281 100.5 483.5t266.5 313.5l51-65q-147-117-231-303.5t-84-428.5 85-426 226-301l-43-73q-84 53-151.5 134t-117 183-76 224-26.5 259z"/><glyph unicode=")" horiz-adv-x="518" d="M10 1432l51 65q166-111 266.5-313.5t100.5-483.5q0-137-26.5-259t-76-224-118-183-150.5-134l-43 73q141 117 226.5 301.5t85.5 425.5q0 242-84 428.5t-232 303.5z"/><glyph unicode="*" horiz-adv-x="798" d="M74 870l260 179-260 184 45 72 239-175v297h80v-297l244 173 43-68-260-184 260-183-41-71-246 172v-312h-80v312l-241-172z"/><glyph unicode="+" d="M74 631v98h391v455h96v-455h389v-98h-389v-457h-96v457h-391z"/><glyph unicode="," horiz-adv-x="323" d="M76 76q0 39 22.5 63.5t61.5 24.5q45 0 68.5-34t23.5-81q0-72-41-138.5t-94-109.5l-35 45q27 27 52.5 64t29.5 72q-37 0-62.5 27.5t-25.5 66.5z"/><glyph unicode="-" horiz-adv-x="598" d="M94 489v109h412v-109h-412z"/><glyph unicode="." horiz-adv-x="329" d="M88 70q0 41 24.5 65.5t59.5 24.5 60.5-24.5 25.5-65.5q0-43-25.5-68t-60.5-25-59.5 25-24.5 68z"/><glyph unicode="/" horiz-adv-x="921" d="M10 4l821 1548 80-47-819-1552z"/><glyph unicode="0" d="M76 674q0 127 25.5 253t78.5 226 136 162.5 198 62.5 198-62.5 136-162.5 77.5-226 24.5-253-25.5-252-78.5-225.5-135-163-197-62.5-198 62.5-136 163-78.5 225.5-25.5 252zm110 2q0-100 18.5-208t58.5-196 101.5-145 149.5-57q86 0 148.5 57t101.5 145 57.5 196 18.5 208q0 104-18.5 211.5t-57.5 194.5-101.5 141.5-148.5 54.5q-88 0-149.5-54.5t-101.5-141.5-58.5-194.5-18.5-211.5z"/><glyph unicode="1" d="M184 1087l363 265h98v-1352h-106v1225l-303-217z"/><glyph unicode="2" d="M111 1186q20 25 57 57.5t87 62 115.5 51 145.5 21.5q94 0 165-26.5t118-74.5 71.5-113.5 24.5-141.5q0-74-20.5-130t-56.5-104.5-87-94.5-113-97l-266-225q-72-59-96.5-121t-24.5-152h674v-98h-784v90q0 49 6 93t23.5 85 47 80 76.5 80l250 215q61 51 108.5 92t80 82 50 88 17.5 113q0 123-71.5 192.5t-198.5 69.5q-57 0-108.5-15.5t-94.5-41-80-57-63-62.5z"/><glyph unicode="3" d="M74 115l49 98q23-23 54.5-47.5t73.5-46 95-35.5 117-14q145 0 233 81.5t88 229.5q0 72-20.5 132t-64.5 105.5-110.5 70-158.5 24.5q-25 0-51.5-1t-54.5-5v88q31 49 85 114.5t115.5 131 122 123 103.5 87.5h-629v99h751v-119q-49-31-111.5-87.5t-124-118.5-114.5-123.5-82-104.5h31q119 0 200-36t131-94.5 71.5-130 21.5-145.5q0-96-30.5-173t-86-132-134.5-85-177-30q-84 0-148.5 15.5t-113.5 37-81 47-50 44.5z"/><glyph unicode="4" d="M84 334v115l637 903h74v-920h141v-98h-141v-334h-101v334h-610zm96 98h514v731z"/><glyph unicode="5" d="M98 100l45 101q53-47 143.5-88t198.5-41q139 0 227.5 92t88.5 252q0 98-32 167.5t-87 113.5-129 63.5-158 19.5q-72 0-129-7t-86-17v596h662v-99h-559v-387q35 4 67.5 7.5t63.5 3.5q113 0 204-30t155.5-88.5 99-144 34.5-198.5q0-100-30.5-182t-87-140.5-134-90.5-170.5-32q-68 0-127 12.5t-108 32-88 42-64 42.5z"/><glyph unicode="6" d="M119 522q0 121 24.5 234.5t71.5 213 115.5 179.5 158.5 133q68 41 151 63.5t167 22.5l22-86q-100-4-187-32.5t-159-88.5q-92-74-150.5-180.5t-82.5-235.5q57 47 131 80t178 33q88 0 160-32.5t122-90 76.5-138.5 26.5-175q0-100-27.5-183t-79-142.5-126-92.5-168.5-33q-102 0-181 39t-133.5 112-82 174-27.5 226zm104-14q0-94 18.5-175t58.5-140.5 99.5-93 143.5-33.5q135 0 217 96t82 256q0 76-19.5 139.5t-58.5 109.5-96.5 71.5-130.5 25.5q-92 0-173-41t-133-90q-6-37-7-61.5t-1-63.5z"/><glyph unicode="7" d="M113 1253v99h815v-80q-113-154-198-307.5t-146.5-310-99.5-319.5-54-335h-108q37 354 162.5 677.5t318.5 575.5h-690z"/><glyph unicode="8" d="M98 358q0 143 70 226.5t174 122.5q-45 16-85 44.5t-70.5 68.5-49 92.5-18.5 115.5q0 78 28.5 142.5t81 110.5 124 71.5 159.5 25.5 159.5-25.5 124-71.5 81-110.5 28.5-142.5q0-63-17.5-115.5t-48-92.5-71.5-68.5-86-44.5q104-39 174-122.5t70-226.5q0-84-28-155.5t-81-122.5-130-80-175-29-175 29-130 80-81 122.5-28 155.5zm103 2q0-147 86-219.5t225-72.5 225 72.5 86 219.5q0 61-22.5 116.5t-63.5 96.5-98 65-127 24-127-24-98-65-63.5-96-22.5-117zm20 670q0-129 82-202.5t209-73.5 210 73.5 83 202.5q0 117-80 186.5t-213 69.5q-131 0-211-69.5t-80-186.5z"/><glyph unicode="9" d="M92 940q0 92 27.5 173t79 139.5 126 92 169.5 33.5q106 0 186-39t133-109.5 81-169.5 28-218q0-207-70-392.5t-215-308.5q-88-74-201.5-119t-259.5-45l19 97q35 0 81 6t95 20.5 97 38 85 58.5q61 55 102 107t68 102.5 44 102.5 34 107q-49-39-133-74.5t-183-35.5q-90 0-162.5 32.5t-124 91-79 137.5-27.5 173zm103 4q0-156 79.5-250t223.5-94q98 0 176 42t133 89q2 16 4 53t2 60q0 94-18.5 175t-57.5 139.5-99 92-144 33.5q-137 0-218-93t-81-247z"/><glyph unicode=":" horiz-adv-x="329" d="M98 70q0 41 24.5 65.5t59.5 24.5 60.5-24.5 25.5-65.5q0-43-25.5-68t-60.5-25-59.5 25-24.5 68zm0 825q0 41 24.5 65.5t59.5 24.5 60.5-24.5 25.5-65.5q0-43-25.5-68t-60.5-25-59.5 25-24.5 68z"/><glyph unicode=";" horiz-adv-x="335" d="M88 895q0 41 24.5 65.5t59.5 24.5 60.5-24.5 25.5-65.5q0-43-25.5-68t-60.5-25-59.5 25-24.5 68zm11-819q0 39 22.5 63.5t61.5 24.5q45 0 68.5-34t23.5-81q0-72-41-138.5t-94-109.5l-35 45q27 27 52.5 64t29.5 72q-37 0-62.5 27.5t-25.5 66.5z"/><glyph unicode="<" d="M113 637v90l766 317 36-94-649-266 662-276-37-99z"/><glyph unicode="=" d="M74 401v99h878v-99h-878zm0 375v98h878v-98h-878z"/><glyph unicode=">" d="M113 408l659 276-647 266 39 94 764-317v-90l-781-328z"/><glyph unicode="?" horiz-adv-x="698" d="M18 1188q18 27 49 60.5t72 62 94.5 48 118.5 19.5q160 0 246-85t86-230q0-55-14.5-103.5t-39-93.5-56-87-66.5-81q-35-41-59.5-71.5t-39-59-20.5-57.5-6-64v-53h-98v62q0 92 41 157.5t94 128.5q66 76 110.5 150t44.5 176q0 104-61 159.5t-166 55.5q-92 0-153.5-47t-110.5-113zm238-1122q0 41 22.5 63.5t57.5 22.5 58.5-22.5 23.5-63.5-23.5-65-58.5-24-57.5 24-22.5 65z"/><glyph unicode="@" horiz-adv-x="1472" d="M98 479q0 197 44 354.5t130 269 213 171 295 59.5q133 0 229.5-36.5t160-98 93-141.5 29.5-166v-850h-98v98q-49-41-117.5-70.5t-154.5-29.5q-74 0-137.5 30.5t-109.5 86-73 134.5-27 175q0 92 26 168t72 130 109.5 84 139.5 30q90 0 154.5-25t117.5-59v77q0 86-25.5 155t-78.5 112q-57 49-133 76.5t-177 27.5q-147 0-255.5-56.5t-180.5-157.5-107.5-240.5-35.5-307.5q0-109 30.5-232.5t109.5-229 215-175 347-69.5q84 0 148.5 8t116 20.5 93.5 27.5 80 32l29-92q-66-31-181.5-61t-297.5-30q-166 0-290 39t-212 104.5-144.5 149.5-89 172-45 176.5-12.5 159.5zm584-16q0-66 16.5-125t47-104.5 75.5-72 105-26.5q86 0 150.5 33t115.5 74v448q-53 37-113.5 62.5t-146.5 25.5q-123 0-186.5-88t-63.5-227z"/><glyph unicode="A" horiz-adv-x="1091" d="M10 0l484 1366h98l489-1366h-112l-160 438h-533l-155-438h-111zm299 541h467l-235 696z"/><glyph unicode="B" horiz-adv-x="1024" d="M156 0v1366h352q186 0 282.5-83t96.5-257q0-252-250-301 141-10 228-94t87-252q0-90-27.5-159.5t-76.5-119-116.5-75-149.5-25.5h-426zm106 100h311q129 0 198 76t69 205q0 154-89 221.5t-249 67.5h-240v-570zm0 670h234q137 0 208.5 70.5t71.5 187.5q0 123-68.5 180.5t-197.5 57.5h-248v-496z"/><glyph unicode="C" horiz-adv-x="1110" d="M102 678q0 174 40 307t111 223 167 137.5 209 47.5q143 0 249.5-73t161.5-190l-86-67q-23 45-55.5 86t-73.5 72.5-90 50-104 18.5q-92 0-169-40t-131.5-117.5-85-192.5-30.5-264q0-133 29.5-243.5t86-189.5 136.5-123 180-44q111 0 193 47t147 133l62-86q-23-29-59-63.5t-87-63.5-116.5-48.5-147.5-19.5q-127 0-226.5 49.5t-169 140.5-105.5 221-36 292z"/><glyph unicode="D" horiz-adv-x="1193" d="M156 0v1366h319q86 0 164-14.5t143-48.5q145-76 229.5-223.5t84.5-377.5q0-283-107.5-450.5t-298.5-222.5q-98-29-215-29h-319zm106 100h195q53 0 109.5 6.5t103.5 24.5q143 53 229 190.5t86 372.5q0 180-55.5 302t-159.5 190q-61 41-140 60.5t-165 19.5h-203v-1166z"/><glyph unicode="E" horiz-adv-x="974" d="M156 0v1366h729v-100h-625v-492h453v-100h-453v-574h662v-100h-766z"/><glyph unicode="F" horiz-adv-x="880" d="M156 0v1366h714v-100h-610v-512h451v-101h-451v-653h-104z"/><glyph unicode="G" horiz-adv-x="1163" d="M102 678q0 172 42 305t114 224 169 138.5 208 47.5q80 0 144.5-21.5t113.5-57.5 86-82 63-97l-79-64q-23 41-52.5 81t-70.5 70.5-92.5 50-112.5 19.5q-86 0-162-39t-133-115.5-91-192.5-34-269q0-137 32-249t89-190.5 138-121.5 179-43q104 0 175 15t116 34v428h-244v100h351v-600q-66-29-171.5-52.5t-228.5-23.5-223 46.5-173 135.5-113 220-40 303z"/><glyph unicode="H" horiz-adv-x="1230" d="M156 0v1366h106v-608h709v608h104v-1366h-104v655h-709v-655h-106z"/><glyph unicode="I" horiz-adv-x="417" d="M156 0v1366h106v-1366h-106z"/><glyph unicode="J" horiz-adv-x="722" d="M25 55l36 97q2-2 20.5-14.5t50.5-27 73-25.5 90-11q104 0 142 55t38 162v1075h107v-1092q0-43-5.5-82.5t-21.5-74.5q-29-61-95.5-100.5t-168.5-39.5q-45 0-88 8.5t-78 20.5-61.5 25.5-38.5 23.5z"/><glyph unicode="K" horiz-adv-x="1062" d="M156 0v1366h106v-614h215q57 0 97 35.5t83 132.5l199 446h115l-207-465q-33-72-64.5-119t-72.5-63q57-16 89-50t60-106l225-563h-114l-172 422q-25 57-43.5 101t-42 73-53 43-74.5 14h-240v-653h-106z"/><glyph unicode="L" horiz-adv-x="921" d="M156 0v1366h106v-1266h629v-100h-735z"/><glyph unicode="M" horiz-adv-x="1429" d="M135 0l62 1366h137l405-1239 377 1239h131l62-1366h-103l-51 1149-364-1172h-109l-393 1188-49-1165h-105z"/><glyph unicode="N" horiz-adv-x="1255" d="M156 0v1366h112l727-1151v1151h105v-1366h-92l-748 1178v-1178h-104z"/><glyph unicode="O" horiz-adv-x="1263" d="M102 684q0 137 34 265t100.5 226.5 166 158 230.5 59.5q135 0 235.5-60.5t165-160 96-227.5 31.5-261-31.5-261-96-227.5-165-161-235.5-61.5-234.5 60.5-166 160-98.5 227.5-32 263zm111 0q0-111 25.5-220.5t78-196.5 131-140 185.5-53q106 0 185 54t131 141 77 195.5 25 219.5-25 219.5-76 194.5-130 140-187 54q-109 0-188.5-53t-131-140-76-195.5-24.5-219.5z"/><glyph unicode="P" horiz-adv-x="1032" d="M156 0v1366h405q197 0 303.5-101.5t106.5-299.5q0-96-31-170t-85-123-129-74-163-25h-301v-573h-106zm106 674h301q135 0 214 78.5t79 214.5q0 141-72.5 220t-222.5 79h-299v-592z"/><glyph unicode="Q" horiz-adv-x="1263" d="M102 684q0 137 34 265t100.5 226.5 166 158 230.5 59.5q135 0 235.5-60.5t165-160 96-227.5 31.5-261q0-127-27.5-247t-86.5-218q92-70 143-130t80-97l-74-60q-27 35-77 89.5t-128 119.5q-63-78-152-123t-206-45q-135 0-234.5 60.5t-166 160-98.5 227.5-32 263zm111 0q0-111 25.5-220.5t78-196.5 131-140 185.5-53q86 0 153.5 33.5t116.5 93.5q-51 31-112.5 56.5t-133.5 47.5l31 92q152-51 268-116 47 86 71 191.5t24 211.5q0 111-25 219.5t-76 194.5-130 140-187 54q-109 0-188.5-53t-131-140-76-195.5-24.5-219.5z"/><glyph unicode="R" horiz-adv-x="1091" d="M156 0v1366h409q197 0 300.5-97.5t103.5-273.5q0-70-17.5-124t-48.5-94-71.5-67.5-88.5-45.5q66-20 94.5-79t55.5-151q12-45 28.5-104.5t32.5-118.5l56-211h-113l-57 213q-10 35-21.5 76t-24 79-22.5 71.5-18 56.5q-20 57-61.5 89.5t-102.5 32.5h-328v-618h-106zm106 719h295q147 0 223 67.5t76 208.5q0 129-74.5 200t-218.5 71h-301v-547z"/><glyph unicode="S" horiz-adv-x="983" d="M68 150l57 96q29-31 68.5-61.5t88-55.5 100.5-40 105-15q63 0 120 16t96.5 49 63.5 84 24 121q0 68-19.5 116t-56.5 85-90.5 64.5-120.5 52.5l-139 49q-123 43-196 123.5t-73 209.5q0 82 31 146.5t84 110 125 69 153 23.5q143 0 242.5-53.5t159.5-127.5l-66-79q-49 61-128 110t-193 49q-125 0-208-59t-83-176q0-96 58.5-154.5t152.5-93.5l133-49q80-29 143.5-62.5t108.5-80 68.5-109 23.5-148.5q0-190-112.5-288.5t-305.5-98.5q-70 0-134 16.5t-118.5 42-96.5 56.5-66 62z"/><glyph unicode="T" horiz-adv-x="931" d="M10 1266v100h912v-100h-404v-1266h-106v1266h-402z"/><glyph unicode="U" horiz-adv-x="1210" d="M141 455v911h105v-881q0-186 92-297.5t266-111.5 267.5 108.5 93.5 300.5v881h106v-911q0-117-37-206t-99.5-150.5-147.5-93.5-181-32q-98 0-183 32t-147.5 93.5-98.5 150.5-36 206z"/><glyph unicode="V" horiz-adv-x="1067" d="M10 1366h119l401-1221 418 1221h109l-477-1366h-107z"/><glyph unicode="W" horiz-adv-x="1470" d="M20 1366h109l258-1139 297 1139h100l312-1145 247 1145h107l-305-1366h-92l-320 1159-313-1159h-90z"/><glyph unicode="X" horiz-adv-x="952" d="M10 0l402 709-367 657h125l305-567 307 567h121l-366-651 405-715h-129l-340 627-344-627h-119z"/><glyph unicode="Y" horiz-adv-x="1021" d="M10 1366h121l375-604 389 604h117l-455-707v-659h-106v657z"/><glyph unicode="Z" horiz-adv-x="1060" d="M86 0v104l762 1162h-729v100h835v-113l-755-1153h784v-100h-897z"/><glyph unicode="[" horiz-adv-x="397" d="M143-293v1800h244v-90h-147v-1618h147v-92h-244z"/><glyph unicode="\" horiz-adv-x="915" d="M10 1505l84 49 811-1538-82-53z"/><glyph unicode="]" horiz-adv-x="397" d="M10-201h148v1618h-148v90h246v-1800h-246v92z"/><glyph unicode="^" horiz-adv-x="974" d="M125 649l315 721h90l322-706-90-41-277 616-272-629z"/><glyph unicode="_" horiz-adv-x="999" d="M0-307h1024v-144h-1024v144z"/><glyph unicode="`" horiz-adv-x="593" d="M10 1376l76 84 317-284-51-60z"/><glyph unicode="a" horiz-adv-x="897" d="M94 272q0 106 51.5 176t132 111 184 57.5 208.5 18.5v39q0 115-49 174-55 63-162 63-82 0-148.5-32.5t-113.5-67.5l-37 82q16 14 47 32.5t70.5 36 87 28.5 98.5 11q156 0 235-90 72-84 72-237v-674h-90l-6 86q-43-45-110.5-77t-162.5-32q-66 0-122 19.5t-97 57.5-64.5 93.5-23.5 124.5zm105-2q0-51 18.5-89t49-63.5 69.5-37.5 80-12q78 0 143.5 34.5t110.5 83.5v359q-84-2-168-13.5t-151.5-41-109.5-82-42-138.5z"/><glyph unicode="b" horiz-adv-x="999" d="M141 41v1325h101v-436q43 27 104.5 49t140.5 22q86 0 162-31.5t132.5-96 89-159.5 32.5-220q0-119-34.5-214.5t-95-163-142.5-103.5-176-36q-98 0-179 19.5t-135 44.5zm101 65q45-18 98-28t96-10q82 0 149.5 30.5t116 87 75 135.5 26.5 175-25.5 172.5-70.5 130-106.5 82-133.5 28.5q-68 0-124-22.5t-101-57.5v-723z"/><glyph unicode="c" horiz-adv-x="897" d="M96 487q0 129 33 225.5t88 161 129 96 154 31.5q72 0 128-21.5t97-52 67.5-66.5 41.5-64l-74-52q-53 82-110.5 124t-149.5 42q-68 0-123-31.5t-95-88-61.5-133-21.5-169.5q0-96 22.5-172.5t65.5-132 102.5-85 132.5-29.5q76 0 137.5 26.5t126.5 93.5l39-88q-43-45-120.5-85t-190.5-40q-90 0-167 34t-132 99.5-87 160-32 216.5z"/><glyph unicode="d" horiz-adv-x="1003" d="M96 492q0 111 31 203.5t86 161.5 134 106.5 177 37.5q86 0 143.5-20t92.5-43v428h102v-1366h-92l-10 86q-45-47-109.5-78t-150.5-31q-92 0-167 37t-127 104.5-81 162-29 211.5zm101-5q0-94 21.5-171.5t61-133 98-85 134.5-29.5q78 0 141.5 36.5t106.5 90.5v639q-33 29-93.5 53t-129.5 24q-78 0-140.5-31.5t-106.5-88-68.5-134-24.5-170.5z"/><glyph unicode="e" horiz-adv-x="958" d="M96 489q0 119 30 214.5t83 161 126 101 161 35.5q94 0 165.5-35.5t120.5-100 75-157 28-202.5h-688q0-207 82.5-322.5t244.5-115.5q174 0 293 125l31-93q-12-12-38-32.5t-67-40-96-35-125-15.5q-205 0-315.5 135.5t-110.5 376.5zm109 107h565q-4 82-29.5 142.5t-63.5 98-85 56-96 18.5q-111 0-190-74.5t-101-240.5z"/><glyph unicode="f" horiz-adv-x="526" d="M45 887v90h139v110q0 158 70 234 66 72 178 72 61 0 105.5-13.5t68.5-25.5l-22-86q-25 12-65 23.5t-87 11.5q-68 0-102-41-45-51-45-181v-104h215v-90h-215v-887h-103v887h-137z"/><glyph unicode="g" horiz-adv-x="972" d="M100 485q0 117 35 212.5t96.5 163 147.5 104 190 36.5q92 0 170-12t127-24v-1010q0-162-94-261.5t-299-99.5q-63 0-118.5 9.5t-98.5 23-71.5 25.5-37.5 18l31 94q45-29 123-54t176-25q147 0 217 70.5t70 224.5v69q-39-27-102.5-49.5t-149.5-22.5q-88 0-163 35t-130 99.5-87 159-32 214.5zm103-4q0-102 26.5-179t72.5-129 105.5-78.5 127.5-26.5q72 0 133 27.5t96 60.5v731q-35 10-83 17t-108 7q-74 0-141-28.5t-118.5-84-81-135-29.5-182.5z"/><glyph unicode="h" horiz-adv-x="1013" d="M141 0v1366h101v-475q53 43 127.5 76.5t173.5 33.5q135 0 215-55t110-160q18-66 19-176v-610h-103v604q0 100-18 154-53 151-236 151h-2q-86 0-156.5-35.5t-129.5-82.5v-791h-101z"/><glyph unicode="i" horiz-adv-x="382" d="M117 1266q0 37 21.5 58.5t51.5 21.5q31 0 52.5-21.5t21.5-58.5q0-41-21.5-61.5t-52.5-20.5-52 20.5-21 61.5zm24-1266v977h101v-977h-101z"/><glyph unicode="j" horiz-adv-x="382" d="M-4-317q82 55 113.5 126.5t31.5 184.5v983h101v-983q0-152-51.5-243t-153.5-152zm127 1583q0 37 21.5 58.5t52.5 21.5 52-21.5 21-58.5q0-41-21-61.5t-52-20.5-52.5 20.5-21.5 61.5z"/><glyph unicode="k" horiz-adv-x="899" d="M141 0v1366h101v-772h159q59 0 102.5 39t86.5 137l90 207h108l-102-225q-33-72-67.5-121t-75.5-66q57-16 91-48t62-103l164-414h-106l-117 289q-25 57-43.5 98t-41 66.5-52 37-74.5 11.5h-184v-502h-101z"/><glyph unicode="l" horiz-adv-x="448" d="M133 168v1198h100v-1173q0-72 15.5-102t68.5-30q31 0 56.5 10.5t46.5 20.5l18-82q-27-14-63.5-23.5t-71.5-9.5q-55 0-89 15.5t-51.5 41-23.5 60.5-6 74z"/><glyph unicode="m" horiz-adv-x="1550" d="M141 0v977h92l7-92q47 39 120.5 77.5t171.5 38.5q168 0 246-116 53 47 131 81.5t183 34.5q172 0 252.5-98t80.5-285v-618h-104v627q0 137-61.5 208.5t-178.5 71.5q-86 0-152.5-32.5t-113.5-73.5q12-31 20.5-75t8.5-97v-629h-103v637q0 74-18 125t-49 83-73 47-87 15q-76 0-146.5-38t-125.5-89v-780h-101z"/><glyph unicode="n" horiz-adv-x="1013" d="M141 0v977h90l11-92q53 47 128.5 81.5t172.5 34.5q137 0 217-54t108-161q20-68 21-176v-610h-103v604q0 51-4 88t-14 66q-53 151-236 151h-2q-88 0-159.5-36.5t-128.5-90.5v-782h-101z"/><glyph unicode="o" horiz-adv-x="1017" d="M96 496q0 98 25.5 189t77 162 129.5 112.5 180 41.5q100 0 178-43t131-113.5 80-162.5 27-190q0-100-27-193.5t-79-164.5-130-114-180-43-179 44.5-128 116-78 165.5-27 193zm101 0q0-80 19.5-157t58-137.5 97-97 136.5-36.5q80 0 138.5 36.5t97 97 58 137.5 19.5 155-19.5 152.5-58 134-97 95-138.5 35.5q-78 0-136.5-35.5t-97-94-58-133.5-19.5-152z"/><glyph unicode="p" horiz-adv-x="999" d="M141-395v1372h90l11-84q47 43 112.5 75.5t157.5 32.5q98 0 171-37.5t122-104 73.5-158.5 24.5-203q0-117-31.5-213.5t-89-165-139.5-105.5-182-37q-72 0-126 16.5t-93 39.5v-428h-101zm101 532q37-29 89-49t120-20q158 0 254 112.5t96 311.5q0 86-17.5 161.5t-54.5 133-96.5 91-140.5 33.5q-78 0-140.5-36.5t-109.5-83.5v-654z"/><glyph unicode="q" horiz-adv-x="1003" d="M96 485q0 117 35 212.5t96.5 163 147.5 104 190 36.5q92 0 170-12t127-24v-1360h-102v444q-39-27-102.5-49.5t-149.5-22.5q-88 0-163 35t-130 99.5-87 159-32 214.5zm103-4q0-102 26.5-179t72.5-129 105.5-78.5 126.5-26.5q72 0 133.5 27.5t96.5 60.5v731q-35 10-83 17t-108 7q-74 0-141.5-28.5t-118.5-84-80.5-135-29.5-182.5z"/><glyph unicode="r" horiz-adv-x="598" d="M141 0v977h88l9-100q20 20 46.5 41.5t56.5 40 64.5 29.5 71.5 11q35 0 63.5-5t47.5-9l-15-98q-41 14-86 14-72 0-136-43t-109-88v-770h-101z"/><glyph unicode="s" horiz-adv-x="772" d="M84 84l39 92q35-35 102.5-71.5t159.5-36.5q104 0 160.5 46t56.5 132q0 49-13.5 84t-43 62.5-76.5 51-115 48.5q-133 47-190.5 107t-57.5 163q0 49 19.5 92t57.5 76 92.5 52 123.5 19q104 0 180-36.5t115-77.5l-43-80q-59 51-120.5 78.5t-139.5 27.5q-92 0-137-41t-45-104q0-37 11-63.5t38-49 72-44 114-46.5q129-47 195-115.5t66-195.5q0-66-25-118t-68-87-101-53.5-126-18.5q-59 0-109.5 11.5t-88 29-64.5 36-39 30.5z"/><glyph unicode="t" horiz-adv-x="595" d="M43 887v90h160v260h100v-260h244v-90h-244v-680q0-78 29.5-108.5t83.5-30.5q35 0 63.5 14t55.5 31l40-76q-29-23-67.5-41.5t-110.5-18.5q-66 0-110.5 28t-65.5 81q-18 43-18 113v688h-160z"/><glyph unicode="u" horiz-adv-x="1011" d="M125 362v615h100v-610q0-102 21-152 29-78 87-112.5t150-34.5q88 0 158 36.5t129 90.5v782h100v-977h-92l-8 92q-53-47-125-82t-176-35q-258 0-324 213-20 63-20 174z"/><glyph unicode="v" horiz-adv-x="845" d="M10 977h111l305-848 305 848h105l-357-977h-108z"/><glyph unicode="w" horiz-adv-x="1286" d="M10 977h111l231-840 246 840h90l246-836 235 836h107l-293-977h-104l-238 805-244-805h-102z"/><glyph unicode="x" horiz-adv-x="759" d="M10 0l316 500-299 477h112l242-393 244 393h108l-299-475 316-502h-111l-258 418-260-418h-111z"/><glyph unicode="y" horiz-adv-x="917" d="M-20-303h16q129 0 237.5 73.5t165.5 202.5l-381 1004h113l334-897q86 180 172 412.5t154 484.5h106q-72-283-157-498t-162-383q-88-184-160-280-72-98-184.5-153.5t-241.5-55.5z"/><glyph unicode="z" horiz-adv-x="872" d="M84 0v106l594 781h-572v90h674v-109l-594-778h609v-90h-711z"/><glyph unicode="{" horiz-adv-x="452" d="M39 643v78q84 14 122 60t38 163v307q0 74 20.5 122t52 76 71.5 38 79 10l10-78q-82-4-106.5-49t-24.5-137v-289q0-113-32.5-173t-121.5-89q88-29 121-89.5t33-172.5v-289q0-92 24.5-137t106.5-49l-10-78q-49 0-90 13.5t-71 43-46 75.5-16 114v307q0 117-38 163t-122 60z"/><glyph unicode="|" horiz-adv-x="382" d="M143-152v1663h97v-1663h-97z"/><glyph unicode="}" horiz-adv-x="452" d="M20-55q82 4 107 49t25 137v289q0 113 32.5 173t120.5 89q-88 29-120.5 89t-32.5 173v289q0 92-25 137t-107 49l11 78q61 0 104-20.5t68.5-54 38-78 12.5-93.5v-307q0-117 38-163t122-60v-78q-84-14-122-60t-38-163v-307q0-68-16.5-114t-46-75.5-70.5-43-90-13.5z"/><glyph unicode="~" horiz-adv-x="843" d="M8 1075q16 123 81 187.5t175 64.5q61 0 106.5-23.5t82.5-52.5q106-88 157-88 66 0 96.5 47t38.5 119h91q-4-76-30-126t-61.5-79.5-73.5-42-67-12.5q-53 0-101 29.5t-102 70.5q-86 68-141 68-78 0-117-49t-49-113h-86z"/><glyph unicode="¡" horiz-adv-x="342" d="M96 903q0 41 22.5 64.5t57.5 23.5 58.5-23.5 23.5-64.5-23.5-63.5-58.5-22.5-57.5 22.5-22.5 63.5zm29-1300v942h102v-942h-102z"/><glyph unicode="¢" d="M195 690q0 84 23.5 150.5t64.5 116 96 78 119 38.5v293h77v-291q76-4 135.5-34.5t94.5-65.5l-62-70q-31 31-71.5 51.5t-96.5 24.5v-598q51 4 93.5 25.5t76.5 56.5l58-72q-39-43-101.5-72.5t-126.5-33.5v-295h-77v297q-133 23-218 123t-85 278zm102 0q0-141 55.5-214t145.5-91v594q-86-12-143.5-86t-57.5-203z"/><glyph unicode="£" d="M96 535v96h131v340q0 197 90.5 302t255.5 105q63 0 115.5-15t92.5-42 71-60.5 51-72.5l-80-66q-49 76-103 117t-145 41q-240 0-239-317v-332h426v-96h-426v-437h569v-98h-678v535h-131z"/><glyph unicode="¤" horiz-adv-x="1320" d="M68 123l299 342q-51 78-75 149.5t-24 143.5 21.5 139.5 68.5 144.5l-290 328 51 51 284-325q72 59 136.5 84.5t130.5 25.5 126-23.5 130-78.5l274 317 53-51-280-315q53-80 75.5-150.5t22.5-146.5q0-78-24.5-152t-81.5-153l288-332-43-45-288 330q-72-51-131.5-74t-120.5-23q-127 0-258 105l-303-338zm264 633q0-78 26.5-147.5t72.5-121 107.5-81 131.5-29.5q104 0 186 63 86 66 119 152t33 164q0 119-58 209-55 92-133 132t-147 40q-104 0-189-66-82-63-115.5-149t-33.5-166z"/><glyph unicode="¥" d="M51 1350h119l328-605 348 605h112l-299-510h187v-97h-240l-57-96v-106h295v-97h-295v-444h-107v444h-297v97h297v104l-55 98h-242v97h191z"/><glyph unicode="¦" horiz-adv-x="382" d="M143-152v566h97v-566h-97zm0 1098v565h97v-565h-97z"/><glyph unicode="§" horiz-adv-x="819" d="M119 573q0 117 69.5 190t173.5 103q-35 31-66.5 65t-56 70.5-39 78.5-14.5 94q0 102 70 162.5t190 60.5q90 0 149.5-32t94.5-73l-53-73q-33 39-81 64.5t-114 25.5q-78 0-118.5-36t-40.5-102q0-74 54-138t157-156q68-61 110.5-105.5t69-83.5 37-79 10.5-93q0-49-17.5-92t-47-78-68.5-60.5-82-41.5q45-37 77.5-71t53-67.5 31-71.5 10.5-85q0-55-22.5-101.5t-61.5-79-91-50-114-17.5q-92 0-155.5 27.5t-110.5 70.5l51 86q43-45 96.5-69.5t112.5-24.5q90 0 141 41t51 119q0 39-10 71.5t-37.5 66.5-74.5 75-123 96q-53 39-93 75t-67 71.5-39 76.5-12 90zm100 2q0-76 38-120.5t89-85.5l88-72q78 29 133.5 84t55.5 135q0 39-11.5 73t-35 67.5-61.5 69.5-91 81q-90-23-147.5-81t-57.5-151z"/><glyph unicode="¨" horiz-adv-x="593" d="M47 1313q0 37 21.5 58.5t52.5 21.5 52.5-21.5 21.5-58.5q0-41-21.5-61.5t-52.5-20.5-52.5 20.5-21.5 61.5zm350 0q0 37 21.5 58.5t52.5 21.5 52.5-21.5 21.5-58.5q0-41-21.5-61.5t-52.5-20.5-52.5 20.5-21.5 61.5z"/><glyph unicode="©" horiz-adv-x="1609" d="M94 608q0 154 48 292t140.5 242.5 224.5 166 298 61.5 298-61.5 224-166 140.5-242.5 48.5-292-48.5-293-140.5-243.5-224-167-298-62.5-298 62.5-224.5 167-140.5 244-48 292.5zm94 0q0-131 42-254t121-217 193.5-151.5 260.5-57.5q145 0 260 57.5t193.5 151.5 120.5 217 42 254-42 254-120.5 217.5-193.5 150.5-260 56-260-56-194-150.5-121-217.5-42-254zm269-4q0 119 28.5 207t78.5 146.5 115.5 86 139.5 27.5q104 0 171-49t102-111l-74-43q-33 53-77 86t-126 33q-117 0-190.5-98t-73.5-285q0-180 77-276.5t191-96.5q72 0 122 34t85 89l70-51q-43-70-108.5-113t-170.5-43q-74 0-139.5 27t-114.5 83-77.5 142-28.5 205z"/><glyph unicode="ª" horiz-adv-x="641" d="M68 969q0 74 33.5 126t91 83.5 130 47 152.5 15.5v39q0 76-39 111.5t-106 35.5q-49 0-92-16t-91-55l-36 63q37 33 94 60.5t131 27.5q111 0 170-61.5t59-190.5v-491h-80l-6 59q-25-23-69.5-50.5t-112.5-27.5q-47 0-88 14.5t-73 43-50 69.5-18 97zm88 0q0-72 43-106t102-34q55 0 100 24t74 58v252q-59 0-116.5-10t-102.5-33.5-72.5-60.5-27.5-90z"/><glyph unicode="«" horiz-adv-x="956" d="M78 512l342 408 63-60-286-340 315-338-59-61zm348 0l350 408 62-60-297-340 325-336-57-63z"/><glyph unicode="¬" d="M74 631v98h876v-555h-96v457h-780z"/><glyph unicode="­" horiz-adv-x="598" d="M94 489v109h412v-109h-412z"/><glyph unicode="®" horiz-adv-x="1609" d="M94 608q0 154 48 292t140.5 242.5 224.5 166 298 61.5 298-61.5 224-166 140.5-242.5 48.5-292-48.5-293-140.5-243.5-224-167-298-62.5-298 62.5-224.5 167-140.5 244-48 292.5zm94 0q0-131 42-254t121-217 193.5-151.5 260.5-57.5q145 0 260 57.5t193.5 151.5 120.5 217 42 254-42 254-120.5 217.5-193.5 150.5-260 56-260-56-194-150.5-121-217.5-42-254zm363-436v889h276q133 0 207-64.5t74-177.5q0-59-16.5-102t-46-72-68.5-46-82-26l229-401h-104l-223 395h-158v-395h-88zm88 477h182q94 0 144.5 40t50.5 130q0 78-49 120t-138 42h-190v-332z"/><glyph unicode="¯" horiz-adv-x="593" d="M10 1243v94h572v-94h-572z"/><glyph unicode="°" horiz-adv-x="702" d="M88 1079q0 57 22.5 108.5t60.5 91.5 89 63.5 109 23.5q57 0 108-22.5t90-62.5 60.5-92.5 21.5-109.5q0-59-21.5-110t-60.5-90-90-61.5-108-22.5-108.5 22.5-89.5 61.5-60.5 90-22.5 110zm88 0q0-41 15.5-77.5t42-63.5 61.5-42 74-15q43 0 77.5 16t61.5 43 41 62.5 14 76.5q0 39-14 75t-40 63.5-61.5 44-78.5 16.5q-82 0-137.5-58.5t-55.5-140.5z"/><glyph unicode="±" d="M74 0v98h876v-98h-876zm0 631v98h391v455h96v-455h389v-98h-389v-457h-96v457h-391z"/><glyph unicode="²" horiz-adv-x="565" d="M63 1280q10 12 31 28.5t50.5 32 66.5 26.5 80 11q106 0 154.5-52t48.5-124-33-118-99-95l-133-102q-37-29-45-55.5t-8-61.5h328v-84h-422v80q0 49 15.5 90t66.5 80l121 92q63 47 87.5 81t24.5 85q0 43-25.5 70.5t-88.5 27.5q-57 0-103.5-27.5t-75.5-58.5z"/><glyph unicode="³" horiz-adv-x="565" d="M53 748l33 77q23-23 70-45t106-22q70 0 112 34.5t42 96.5q0 76-53.5 109.5t-139.5 33.5q-16 0-29.5-1t-25.5-3v68q31 41 84 90t125 98h-281v86h406v-90q-74-45-136.5-92t-95.5-88q119 0 179.5-59.5t60.5-139.5q0-98-66.5-159.5t-183.5-61.5q-78 0-133 24.5t-74 43.5z"/><glyph unicode="´" horiz-adv-x="593" d="M100 1176l318 284 76-84-344-260z"/><glyph unicode="µ" horiz-adv-x="1081" d="M156-387v1364h102v-617q0-68 19.5-122t55.5-91.5 84-58 105-20.5q55 0 100.5 14t80 38.5 58 55.5 36.5 64q8 29 10 64.5t2 70.5v602h104v-764q0-70 12.5-107.5t63.5-37.5q14 0 29.5 5t28.5 9l18-86q-18-8-45-13.5t-47-5.5q-68 0-107 37t-49 105q-49-63-120.5-102.5t-176.5-39.5q-90 0-159.5 37t-106.5 107v-508h-98z"/><glyph unicode="¶" horiz-adv-x="950" d="M72 979q0 80 27.5 150.5t76.5 123 113.5 83 138.5 30.5h119v-1663h-94v889q-84 0-154 30.5t-120 83-78.5 123-28.5 150.5zm645-1276v1663h96v-1663h-96z"/><glyph unicode="·" horiz-adv-x="557" d="M195 758q0 41 24.5 65.5t59.5 24.5 60.5-24.5 25.5-65.5q0-43-25.5-67.5t-60.5-24.5-59.5 24.5-24.5 67.5z"/><glyph unicode="¸" horiz-adv-x="593" d="M186-356l99 266h121l-140-266h-80z"/><glyph unicode="¹" horiz-adv-x="565" d="M84 1245l205 125h84v-684h-92v578l-156-93z"/><glyph unicode="º" horiz-adv-x="741" d="M68 1135q0 72 18 140t56 120.5 95.5 84 133.5 31.5 133-31.5 95-85 57.5-120.5 19.5-141q0-72-19.5-140.5t-57.5-123-95.5-87-132.5-32.5q-76 0-132.5 32.5t-94.5 87-57 123-19 142.5zm88 0q0-57 13-111.5t40-97.5 66.5-70 95.5-27q55 0 95 27t66.5 70 40 97.5 13.5 111.5q0 55-13.5 109t-40 95-66.5 67-95 26-95-26-67-68-40-95-13-108z"/><glyph unicode="»" horiz-adv-x="956" d="M90 856l57 64 383-392-350-407-61 59 297 342zm354 2l60 62 375-392-342-405-64 57 287 342z"/><glyph unicode="¼" horiz-adv-x="1392" d="M72 1245l205 125h84v-684h-92v578l-156-93zm2-1188l1210 1319 64-67-1210-1323zm733 101v82l340 444h76v-444h86v-82h-86v-158h-90v158h-326zm96 82h230v301z"/><glyph unicode="½" horiz-adv-x="1392" d="M25 57l1210 1319 64-67-1210-1323zm39 1188l205 125h84v-684h-92v578l-156-93zm790-647q10 12 31 28.5t50.5 32 66.5 26.5 80 11q106 0 154.5-52t48.5-124-33-118-99-95l-133-102q-37-29-45-55.5t-8-61.5h328v-84h-422v80q0 49 15.5 90t66.5 80l121 92q63 47 87.5 81t24.5 85q0 43-25.5 70.5t-88.5 27.5q-57 0-103.5-27.5t-75.5-58.5z"/><glyph unicode="¾" horiz-adv-x="1392" d="M110 748l33 77q23-23 70-45t106-22q70 0 112 34.5t42 96.5q0 76-53.5 109.5t-139.5 33.5q-16 0-29.5-1t-25.5-3v68q31 41 84 90t125 98h-281v86h406v-90q-74-45-136.5-92t-95.5-88q119 0 179.5-59.5t60.5-139.5q0-98-66.5-159.5t-183.5-61.5q-78 0-133 24.5t-74 43.5zm46-691l1210 1319 64-67-1210-1323zm682 101v82l340 444h76v-444h86v-82h-86v-158h-90v158h-326zm96 82h230v301z"/><glyph unicode="¿" horiz-adv-x="698" d="M6-80q0 55 14.5 103.5t39 93.5 56 87 66.5 81q35 41 59.5 71.5t39 59 20.5 57.5 6 64v53h98v-62q0-92-41-157.5t-94-128.5q-66-76-110.5-150t-44.5-176q0-104 61-159.5t166-55.5q92 0 153.5 47t110.5 113l66-66q-18-27-49-60.5t-72-62-94.5-48-118.5-19.5q-160 0-246 85t-86 230zm266 997q0 41 23.5 65t58.5 24 57.5-24 22.5-65-22.5-63.5-57.5-22.5-58.5 22.5-23.5 63.5z"/><glyph unicode="À" horiz-adv-x="1091" d="M10 0l484 1366h98l489-1366h-112l-160 438h-533l-155-438h-111zm299 541h467l-235 696zm45 1175l76 84 317-284-51-60z"/><glyph unicode="Á" horiz-adv-x="1091" d="M10 0l484 1366h98l489-1366h-112l-160 438h-533l-155-438h-111zm299 541h467l-235 696zm55 975l318 284 76-84-344-260z"/><glyph unicode="Â" horiz-adv-x="1091" d="M10 0l484 1366h98l489-1366h-112l-160 438h-533l-155-438h-111zm269 1503l231 307h64l231-307-59-53-205 264-203-264zm30-962h467l-235 696z"/><glyph unicode="Ã" horiz-adv-x="1091" d="M10 0l484 1366h98l489-1366h-112l-160 438h-533l-155-438h-111zm205 1552q33 88 84 128t119 40q41 0 78-17t74-46q35-27 63.5-41t50.5-14q31 0 60.5 28.5t58.5 100.5l72-35q-37-98-90.5-139t-108.5-41q-41 0-81 20.5t-68 42.5q-78 59-121 59-35 0-63.5-26.5t-55.5-89.5zm94-1011h467l-235 696z"/><glyph unicode="Ä" horiz-adv-x="1091" d="M10 0l484 1366h98l489-1366h-112l-160 438h-533l-155-438h-111zm281 1653q0 37 21.5 58.5t52.5 21.5 52.5-21.5 21.5-58.5q0-41-21.5-61.5t-52.5-20.5-52.5 20.5-21.5 61.5zm18-1112h467l-235 696zm332 1112q0 37 21.5 58.5t52.5 21.5 52.5-21.5 21.5-58.5q0-41-21.5-61.5t-52.5-20.5-52.5 20.5-21.5 61.5z"/><glyph unicode="Å" horiz-adv-x="1091" d="M10 0l484 1366h98l489-1366h-112l-160 438h-533l-155-438h-111zm299 541h467l-235 696zm37 1095q0 39 12.5 76t36 65.5 59.5 46 83 17.5 83-17.5 60.5-46 36.5-65.5 12-76q0-37-12-73.5t-36.5-65.5-60.5-46-83-17-83 17-59.5 46-36 64.5-12.5 74.5zm82 0q0-59 31-95t80-36q51 0 81 36t30 95q0 55-33 94.5t-78 39.5-78-39-33-95z"/><glyph unicode="Æ" horiz-adv-x="1624" d="M-10 0l790 1366h754v-100h-625v-492h453v-100h-453v-574h662v-100h-764v438h-455l-254-438h-108zm418 541h399v696z"/><glyph unicode="Ç" horiz-adv-x="1110" d="M102 678q0 174 40 307t111 223 167 137.5 209 47.5q143 0 249.5-73t161.5-190l-86-67q-23 45-55.5 86t-73.5 72.5-90 50-104 18.5q-92 0-169-40t-131.5-117.5-85-192.5-30.5-264q0-133 29.5-243.5t86-189.5 136.5-123 180-44q111 0 193 47t147 133l62-86q-23-29-59-63.5t-87-63.5-116.5-48.5-147.5-19.5q-127 0-226.5 49.5t-169 140.5-105.5 221-36 292zm381-1034l99 266h121l-140-266h-80z"/><glyph unicode="È" horiz-adv-x="974" d="M156 0v1366h729v-100h-625v-492h453v-100h-453v-574h662v-100h-766zm145 1716l76 84 317-284-51-60z"/><glyph unicode="É" horiz-adv-x="974" d="M156 0v1366h729v-100h-625v-492h453v-100h-453v-574h662v-100h-766zm190 1516l318 284 76-84-344-260z"/><glyph unicode="Ê" horiz-adv-x="974" d="M156 0v1366h729v-100h-625v-492h453v-100h-453v-574h662v-100h-766zm100 1503l231 307h64l231-307-59-53-205 264-203-264z"/><glyph unicode="Ë" horiz-adv-x="974" d="M156 0v1366h729v-100h-625v-492h453v-100h-453v-574h662v-100h-766zm124 1653q0 37 21.5 58.5t52.5 21.5 52.5-21.5 21.5-58.5q0-41-21.5-61.5t-52.5-20.5-52.5 20.5-21.5 61.5zm350 0q0 37 21.5 58.5t52.5 21.5 52.5-21.5 21.5-58.5q0-41-21.5-61.5t-52.5-20.5-52.5 20.5-21.5 61.5z"/><glyph unicode="Ì" horiz-adv-x="417" d="M10 1716l76 84 317-284-51-60zm146-1716v1366h106v-1366h-106z"/><glyph unicode="Í" horiz-adv-x="417" d="M49 1516l318 284 76-84-344-260zm107-1516v1366h106v-1366h-106z"/><glyph unicode="Î" horiz-adv-x="417" d="M-45 1503l231 307h64l231-307-59-53-205 264-203-264zm201-1503v1366h106v-1366h-106z"/><glyph unicode="Ï" horiz-adv-x="417" d="M-33 1653q0 37 21.5 58.5t52.5 21.5 52.5-21.5 21.5-58.5q0-41-21.5-61.5t-52.5-20.5-52.5 20.5-21.5 61.5zm189-1653v1366h106v-1366h-106zm161 1653q0 37 21.5 58.5t52.5 21.5 52.5-21.5 21.5-58.5q0-41-21.5-61.5t-52.5-20.5-52.5 20.5-21.5 61.5z"/><glyph unicode="Ð" horiz-adv-x="1193" d="M4 666v88h152v612h319q86 0 164-14.5t143-48.5q145-76 229.5-223.5t84.5-377.5q0-283-107.5-450.5t-298.5-222.5q-98-29-215-29h-319v666h-152zm258-566h195q53 0 109.5 6.5t103.5 24.5q143 53 229 190.5t86 372.5q0 180-55.5 302t-159.5 190q-61 41-140 60.5t-165 19.5h-203v-512h375v-88h-375v-566z"/><glyph unicode="Ñ" horiz-adv-x="1255" d="M156 0v1366h112l727-1151v1151h105v-1366h-92l-748 1178v-1178h-104zm171 1552q33 88 84 128t119 40q41 0 78-17t74-46q35-27 63.5-41t50.5-14q31 0 60.5 28.5t58.5 100.5l72-35q-37-98-90.5-139t-108.5-41q-41 0-81 20.5t-68 42.5q-78 59-121 59-35 0-63.5-26.5t-55.5-89.5z"/><glyph unicode="Ò" horiz-adv-x="1263" d="M102 684q0 137 34 265t100.5 226.5 166 158 230.5 59.5q135 0 235.5-60.5t165-160 96-227.5 31.5-261-31.5-261-96-227.5-165-161-235.5-61.5-234.5 60.5-166 160-98.5 227.5-32 263zm111 0q0-111 25.5-220.5t78-196.5 131-140 185.5-53q106 0 185 54t131 141 77 195.5 25 219.5-25 219.5-76 194.5-130 140-187 54q-109 0-188.5-53t-131-140-76-195.5-24.5-219.5zm252 1032l76 84 317-284-51-60z"/><glyph unicode="Ó" horiz-adv-x="1263" d="M102 684q0 137 34 265t100.5 226.5 166 158 230.5 59.5q135 0 235.5-60.5t165-160 96-227.5 31.5-261-31.5-261-96-227.5-165-161-235.5-61.5-234.5 60.5-166 160-98.5 227.5-32 263zm111 0q0-111 25.5-220.5t78-196.5 131-140 185.5-53q106 0 185 54t131 141 77 195.5 25 219.5-25 219.5-76 194.5-130 140-187 54q-109 0-188.5-53t-131-140-76-195.5-24.5-219.5zm243 832l318 284 76-84-344-260z"/><glyph unicode="Ô" horiz-adv-x="1263" d="M102 684q0 137 34 265t100.5 226.5 166 158 230.5 59.5q135 0 235.5-60.5t165-160 96-227.5 31.5-261-31.5-261-96-227.5-165-161-235.5-61.5-234.5 60.5-166 160-98.5 227.5-32 263zm111 0q0-111 25.5-220.5t78-196.5 131-140 185.5-53q106 0 185 54t131 141 77 195.5 25 219.5-25 219.5-76 194.5-130 140-187 54q-109 0-188.5-53t-131-140-76-195.5-24.5-219.5zm168 819l231 307h64l231-307-59-53-205 264-203-264z"/><glyph unicode="Õ" horiz-adv-x="1263" d="M102 684q0 137 34 265t100.5 226.5 166 158 230.5 59.5q135 0 235.5-60.5t165-160 96-227.5 31.5-261-31.5-261-96-227.5-165-161-235.5-61.5-234.5 60.5-166 160-98.5 227.5-32 263zm111 0q0-111 25.5-220.5t78-196.5 131-140 185.5-53q106 0 185 54t131 141 77 195.5 25 219.5-25 219.5-76 194.5-130 140-187 54q-109 0-188.5-53t-131-140-76-195.5-24.5-219.5zm100 868q33 88 84 128t119 40q41 0 78-17t74-46q35-27 63.5-41t50.5-14q31 0 60.5 28.5t58.5 100.5l72-35q-37-98-90.5-139t-108.5-41q-41 0-81 20.5t-68 42.5q-78 59-121 59-35 0-63.5-26.5t-55.5-89.5z"/><glyph unicode="Ö" horiz-adv-x="1263" d="M102 684q0 137 34 265t100.5 226.5 166 158 230.5 59.5q135 0 235.5-60.5t165-160 96-227.5 31.5-261-31.5-261-96-227.5-165-161-235.5-61.5-234.5 60.5-166 160-98.5 227.5-32 263zm111 0q0-111 25.5-220.5t78-196.5 131-140 185.5-53q106 0 185 54t131 141 77 195.5 25 219.5-25 219.5-76 194.5-130 140-187 54q-109 0-188.5-53t-131-140-76-195.5-24.5-219.5zm172 969q0 37 21.5 58.5t52.5 21.5 52.5-21.5 21.5-58.5q0-41-21.5-61.5t-52.5-20.5-52.5 20.5-21.5 61.5zm350 0q0 37 21.5 58.5t52.5 21.5 52.5-21.5 21.5-58.5q0-41-21.5-61.5t-52.5-20.5-52.5 20.5-21.5 61.5z"/><glyph unicode="×" d="M141 358l305 320-305 321 68 72 303-321 305 321 70-72-307-321 307-320-70-71-305 321-303-321z"/><glyph unicode="Ø" horiz-adv-x="1265" d="M98 18l133 179q-66 100-96.5 226t-30.5 261q0 137 34 265t100.5 226.5 166 158 230.5 59.5q117 0 207-45t155-123l131 178 80-64-151-202q53-98 79.5-214t26.5-239q0-133-31.5-261t-96-227.5-165-161-235.5-61.5q-106 0-190.5 39t-149.5 105l-121-162zm117 666q0-104 21.5-204.5t68.5-184.5l623 840q-51 72-123 114.5t-170 42.5q-109 0-188.5-53t-131-140-76-195.5-24.5-219.5zm147-477q49-61 118-97t155-36q106 0 185 54t131.5 141 77 195.5 24.5 219.5q0 92-17.5 183t-52.5 171z"/><glyph unicode="Ù" horiz-adv-x="1210" d="M141 455v911h105v-881q0-186 92-297.5t266-111.5 267.5 108.5 93.5 300.5v881h106v-911q0-117-37-206t-99.5-150.5-147.5-93.5-181-32q-98 0-183 32t-147.5 93.5-98.5 150.5-36 206zm272 1261l76 84 317-284-51-60z"/><glyph unicode="Ú" horiz-adv-x="1210" d="M141 455v911h105v-881q0-186 92-297.5t266-111.5 267.5 108.5 93.5 300.5v881h106v-911q0-117-37-206t-99.5-150.5-147.5-93.5-181-32q-98 0-183 32t-147.5 93.5-98.5 150.5-36 206zm332 1061l318 284 76-84-344-260z"/><glyph unicode="Û" horiz-adv-x="1210" d="M141 455v911h105v-881q0-186 92-297.5t266-111.5 267.5 108.5 93.5 300.5v881h106v-911q0-117-37-206t-99.5-150.5-147.5-93.5-181-32q-98 0-183 32t-147.5 93.5-98.5 150.5-36 206zm216 1048l231 307h64l231-307-59-53-205 264-203-264z"/><glyph unicode="Ü" horiz-adv-x="1210" d="M141 455v911h105v-881q0-186 92-297.5t266-111.5 267.5 108.5 93.5 300.5v881h106v-911q0-117-37-206t-99.5-150.5-147.5-93.5-181-32q-98 0-183 32t-147.5 93.5-98.5 150.5-36 206zm221 1198q0 37 21.5 58.5t52.5 21.5 52.5-21.5 21.5-58.5q0-41-21.5-61.5t-52.5-20.5-52.5 20.5-21.5 61.5zm350 0q0 37 21.5 58.5t52.5 21.5 52.5-21.5 21.5-58.5q0-41-21.5-61.5t-52.5-20.5-52.5 20.5-21.5 61.5z"/><glyph unicode="Ý" horiz-adv-x="1021" d="M10 1366h121l375-604 389 604h117l-455-707v-659h-106v657zm420 150l318 284 76-84-344-260z"/><glyph unicode="Þ" horiz-adv-x="1011" d="M147 0v1366h107v-289h299q197 0 303.5-101.5t106.5-299.5q0-96-31-170t-85-123-129-73.5-163-24.5h-301v-285h-107zm107 385h301q135 0 214 79t79 214q0 141-73 220t-222 79h-299v-592z"/><glyph unicode="ß" horiz-adv-x="1044" d="M45 887v90h137v43q0 86 25.5 155.5t72 117.5 109 74 137.5 26q150 0 242-109.5t92-306.5v-90h-149q-92 0-138.5-40t-46.5-108q0-33 10.5-57.5t34-45 63.5-39.5 99-42q135-51 189.5-121.5t54.5-185.5q0-125-79-198t-206-73q-53 0-99 10.5t-83 25-63.5 31.5-38.5 32l36 90q41-37 106.5-67.5t141.5-30.5q86 0 135.5 47t49.5 129q0 39-10.5 71.5t-36 61.5-70.5 54.5-113 49.5q-100 37-160.5 93.5t-60.5 162.5q0 51 20.5 95.5t57.5 77 89 50 116 17.5h55q-4 162-67.5 244t-170.5 82q-111 0-177-71t-66-224v-1008h-101v887h-137z"/><glyph unicode="à" horiz-adv-x="897" d="M94 272q0 106 51.5 176t132 111 184 57.5 208.5 18.5v39q0 115-49 174-55 63-162 63-82 0-148.5-32.5t-113.5-67.5l-37 82q16 14 47 32.5t70.5 36 87 28.5 98.5 11q156 0 235-90 72-84 72-237v-674h-90l-6 86q-43-45-110.5-77t-162.5-32q-66 0-122 19.5t-97 57.5-64.5 93.5-23.5 124.5zm105-2q0-51 18.5-89t49-63.5 69.5-37.5 80-12q78 0 143.5 34.5t110.5 83.5v359q-84-2-168-13.5t-151.5-41-109.5-82-42-138.5zm65 1106l76 84 317-284-51-60z"/><glyph unicode="á" horiz-adv-x="897" d="M94 272q0 106 51.5 176t132 111 184 57.5 208.5 18.5v39q0 115-49 174-55 63-162 63-82 0-148.5-32.5t-113.5-67.5l-37 82q16 14 47 32.5t70.5 36 87 28.5 98.5 11q156 0 235-90 72-84 72-237v-674h-90l-6 86q-43-45-110.5-77t-162.5-32q-66 0-122 19.5t-97 57.5-64.5 93.5-23.5 124.5zm105-2q0-51 18.5-89t49-63.5 69.5-37.5 80-12q78 0 143.5 34.5t110.5 83.5v359q-84-2-168-13.5t-151.5-41-109.5-82-42-138.5zm96 906l318 284 76-84-344-260z"/><glyph unicode="â" horiz-adv-x="897" d="M94 272q0 106 51.5 176t132 111 184 57.5 208.5 18.5v39q0 115-49 174-55 63-162 63-82 0-148.5-32.5t-113.5-67.5l-37 82q16 14 47 32.5t70.5 36 87 28.5 98.5 11q156 0 235-90 72-84 72-237v-674h-90l-6 86q-43-45-110.5-77t-162.5-32q-66 0-122 19.5t-97 57.5-64.5 93.5-23.5 124.5zm101 891l231 307h64l231-307-59-53-205 264-203-264zm4-893q0-51 18.5-89t49-63.5 69.5-37.5 80-12q78 0 143.5 34.5t110.5 83.5v359q-84-2-168-13.5t-151.5-41-109.5-82-42-138.5z"/><glyph unicode="ã" horiz-adv-x="897" d="M94 272q0 106 51.5 176t132 111 184 57.5 208.5 18.5v39q0 115-49 174-55 63-162 63-82 0-148.5-32.5t-113.5-67.5l-37 82q16 14 47 32.5t70.5 36 87 28.5 98.5 11q156 0 235-90 72-84 72-237v-674h-90l-6 86q-43-45-110.5-77t-162.5-32q-66 0-122 19.5t-97 57.5-64.5 93.5-23.5 124.5zm39 940q33 88 84 128t119 40q41 0 78-17t74-46q35-27 63.5-41t50.5-14q31 0 60.5 28.5t58.5 100.5l72-35q-37-98-90.5-139t-108.5-41q-41 0-81 20.5t-68 42.5q-78 59-121 59-35 0-63.5-26.5t-55.5-89.5zm66-942q0-51 18.5-89t49-63.5 69.5-37.5 80-12q78 0 143.5 34.5t110.5 83.5v359q-84-2-168-13.5t-151.5-41-109.5-82-42-138.5z"/><glyph unicode="ä" horiz-adv-x="897" d="M94 272q0 106 51.5 176t132 111 184 57.5 208.5 18.5v39q0 115-49 174-55 63-162 63-82 0-148.5-32.5t-113.5-67.5l-37 82q16 14 47 32.5t70.5 36 87 28.5 98.5 11q156 0 235-90 72-84 72-237v-674h-90l-6 86q-43-45-110.5-77t-162.5-32q-66 0-122 19.5t-97 57.5-64.5 93.5-23.5 124.5zm105-2q0-51 18.5-89t49-63.5 69.5-37.5 80-12q78 0 143.5 34.5t110.5 83.5v359q-84-2-168-13.5t-151.5-41-109.5-82-42-138.5zm8 1043q0 37 21.5 58.5t52.5 21.5 52.5-21.5 21.5-58.5q0-41-21.5-61.5t-52.5-20.5-52.5 20.5-21.5 61.5zm350 0q0 37 21.5 58.5t52.5 21.5 52.5-21.5 21.5-58.5q0-41-21.5-61.5t-52.5-20.5-52.5 20.5-21.5 61.5z"/><glyph unicode="å" horiz-adv-x="897" d="M94 272q0 106 51.5 176t132 111 184 57.5 208.5 18.5v39q0 115-49 174-55 63-162 63-82 0-148.5-32.5t-113.5-67.5l-37 82q16 14 47 32.5t70.5 36 87 28.5 98.5 11q156 0 235-90 72-84 72-237v-674h-90l-6 86q-43-45-110.5-77t-162.5-32q-66 0-122 19.5t-97 57.5-64.5 93.5-23.5 124.5zm105-2q0-51 18.5-89t49-63.5 69.5-37.5 80-12q78 0 143.5 34.5t110.5 83.5v359q-84-2-168-13.5t-151.5-41-109.5-82-42-138.5zm83 1026q0 39 12.5 76t36 65.5 59.5 46 83 17.5 83-17.5 60.5-46 36.5-65.5 12-76q0-37-12-73.5t-36.5-65.5-60.5-46-83-17-83 17-59.5 46-36 64.5-12.5 74.5zm82 0q0-59 31-95t80-36q51 0 81 36t30 95q0 55-33 94.5t-78 39.5-78-39-33-95z"/><glyph unicode="æ" horiz-adv-x="1548" d="M94 281q0 68 23.5 119t63.5 87.5 91.5 60 106.5 36.5q49 10 116.5 16t133.5 6h65v68q0 53-16 101t-39 71q-61 66-174 65-82 0-152.5-32.5t-115.5-67.5l-37 84q20 14 52 33.5t72 35 87 26.5 98 11q131 0 197.5-50t101.5-134q51 90 132 137t185 47q190 0 287.5-131t102.5-354h-684q0-207 80.5-327.5t242.5-120.5q174 0 293 125l31-93q-12-12-38-32.5t-67-40-96-35-125-15.5q-127 0-217 51.5t-139 149.5q-16-37-44-73.5t-69-64.5-98.5-45.5-130.5-17.5q-154 0-237 82t-83 222zm107-2q0-111 64.5-161t160.5-50q55 0 104.5 16t86 47 58 74 21.5 96v215h-63q-57 0-114.5-3t-108.5-13q-84-16-146.5-68.5t-62.5-152.5zm598 327h561q-4 82-29.5 139.5t-63.5 94.5-85 54-97 17q-109 0-189.5-75.5t-96.5-229.5z"/><glyph unicode="ç" horiz-adv-x="897" d="M96 487q0 129 33 225.5t88 161 129 96 154 31.5q72 0 128-21.5t97-52 67.5-66.5 41.5-64l-74-52q-53 82-110.5 124t-149.5 42q-68 0-123-31.5t-95-88-61.5-133-21.5-169.5q0-96 22.5-172.5t65.5-132 102.5-85 132.5-29.5q76 0 137.5 26.5t126.5 93.5l39-88q-43-45-120.5-85t-190.5-40q-90 0-167 34t-132 99.5-87 160-32 216.5zm266-843l99 266h121l-140-266h-80z"/><glyph unicode="è" horiz-adv-x="958" d="M96 489q0 119 30 214.5t83 161 126 101 161 35.5q94 0 165.5-35.5t120.5-100 75-157 28-202.5h-688q0-207 82.5-322.5t244.5-115.5q174 0 293 125l31-93q-12-12-38-32.5t-67-40-96-35-125-15.5q-205 0-315.5 135.5t-110.5 376.5zm109 107h565q-4 82-29.5 142.5t-63.5 98-85 56-96 18.5q-111 0-190-74.5t-101-240.5zm102 780l76 84 317-284-51-60z"/><glyph unicode="é" horiz-adv-x="958" d="M96 489q0 119 30 214.5t83 161 126 101 161 35.5q94 0 165.5-35.5t120.5-100 75-157 28-202.5h-688q0-207 82.5-322.5t244.5-115.5q174 0 293 125l31-93q-12-12-38-32.5t-67-40-96-35-125-15.5q-205 0-315.5 135.5t-110.5 376.5zm109 107h565q-4 82-29.5 142.5t-63.5 98-85 56-96 18.5q-111 0-190-74.5t-101-240.5zm128 580l318 284 76-84-344-260z"/><glyph unicode="ê" horiz-adv-x="958" d="M96 489q0 119 30 214.5t83 161 126 101 161 35.5q94 0 165.5-35.5t120.5-100 75-157 28-202.5h-688q0-207 82.5-322.5t244.5-115.5q174 0 293 125l31-93q-12-12-38-32.5t-67-40-96-35-125-15.5q-205 0-315.5 135.5t-110.5 376.5zm109 107h565q-4 82-29.5 142.5t-63.5 98-85 56-96 18.5q-111 0-190-74.5t-101-240.5zm37 567l231 307h64l231-307-59-53-205 264-203-264z"/><glyph unicode="ë" horiz-adv-x="958" d="M96 489q0 119 30 214.5t83 161 126 101 161 35.5q94 0 165.5-35.5t120.5-100 75-157 28-202.5h-688q0-207 82.5-322.5t244.5-115.5q174 0 293 125l31-93q-12-12-38-32.5t-67-40-96-35-125-15.5q-205 0-315.5 135.5t-110.5 376.5zm109 107h565q-4 82-29.5 142.5t-63.5 98-85 56-96 18.5q-111 0-190-74.5t-101-240.5zm47 717q0 37 21.5 58.5t52.5 21.5 52.5-21.5 21.5-58.5q0-41-21.5-61.5t-52.5-20.5-52.5 20.5-21.5 61.5zm350 0q0 37 21.5 58.5t52.5 21.5 52.5-21.5 21.5-58.5q0-41-21.5-61.5t-52.5-20.5-52.5 20.5-21.5 61.5z"/><glyph unicode="ì" horiz-adv-x="382" d="M12 1376l76 84 317-284-51-60zm139-1376v977h101v-977h-101z"/><glyph unicode="í" horiz-adv-x="382" d="M28 1176l318 284 76-84-344-260zm123-1176v977h101v-977h-101z"/><glyph unicode="î" horiz-adv-x="382" d="M-51 1163l231 307h64l231-307-59-53-205 264-203-264zm202-1163v977h101v-977h-101z"/><glyph unicode="ï" horiz-adv-x="382" d="M-39 1313q0 37 21.5 58.5t52.5 21.5 52.5-21.5 21.5-58.5q0-41-21.5-61.5t-52.5-20.5-52.5 20.5-21.5 61.5zm190-1313v977h101v-977h-101zm160 1313q0 37 21.5 58.5t52.5 21.5 52.5-21.5 21.5-58.5q0-41-21.5-61.5t-52.5-20.5-52.5 20.5-21.5 61.5z"/><glyph unicode="ð" horiz-adv-x="1011" d="M96 492q0 119 30 214t84 160.5 129 100 165 34.5q84 0 143.5-17t106.5-50q-29 72-74 139.5t-107 124.5l-227-104-53 57 219 100q-80 61-154 90l86 45q41-20 79-42.5t73-51.5l221 101 53-58-213-96q102-98 158-217 100-209 100-479 0-141-29.5-248t-83.5-177.5-129-105.5-165-35q-86 0-161 32t-131 96.5-88 160.5-32 226zm99 0q0-104 24.5-183.5t67.5-132.5 99-80.5 122-27.5q63 0 120.5 26.5t98.5 84 65.5 146.5 24.5 214q0 94-11 168.5t-26 115.5q-51 41-115.5 64.5t-156.5 23.5q-137 0-225-109.5t-88-309.5z"/><glyph unicode="ñ" horiz-adv-x="1013" d="M141 0v977h90l11-92q53 47 128.5 81.5t172.5 34.5q137 0 217-54t108-161q20-68 21-176v-610h-103v604q0 51-4 88t-14 66q-53 152-238 151-88 0-159.5-36.5t-128.5-90.5v-782h-101zm55 1212q33 88 84 128t119 40q41 0 78-17t74-46q35-27 63.5-41t50.5-14q31 0 60.5 28.5t58.5 100.5l72-35q-37-98-90.5-139t-108.5-41q-41 0-81 20.5t-68 42.5q-78 59-121 59-35 0-63.5-26.5t-55.5-89.5z"/><glyph unicode="ò" horiz-adv-x="1017" d="M96 496q0 98 25.5 189t77 162 129.5 112.5 180 41.5q100 0 178-43t131-113.5 80-162.5 27-190q0-100-27-193.5t-79-164.5-130-114-180-43-179 44.5-128 116-78 165.5-27 193zm101 0q0-80 19.5-157t58-137.5 97-97 136.5-36.5q80 0 138.5 36.5t97 97 58 137.5 19.5 155-19.5 152.5-58 134-97 95-138.5 35.5q-78 0-136.5-35.5t-97-94-58-133.5-19.5-152zm141 880l76 84 317-284-51-60z"/><glyph unicode="ó" horiz-adv-x="1017" d="M96 496q0 98 25.5 189t77 162 129.5 112.5 180 41.5q100 0 178-43t131-113.5 80-162.5 27-190q0-100-27-193.5t-79-164.5-130-114-180-43-179 44.5-128 116-78 165.5-27 193zm101 0q0-80 19.5-157t58-137.5 97-97 136.5-36.5q80 0 138.5 36.5t97 97 58 137.5 19.5 155-19.5 152.5-58 134-97 95-138.5 35.5q-78 0-136.5-35.5t-97-94-58-133.5-19.5-152zm139 680l318 284 76-84-344-260z"/><glyph unicode="ô" horiz-adv-x="1017" d="M96 496q0 98 25.5 189t77 162 129.5 112.5 180 41.5q100 0 178-43t131-113.5 80-162.5 27-190q0-100-27-193.5t-79-164.5-130-114-180-43-179 44.5-128 116-78 165.5-27 193zm101 0q0-80 19.5-157t58-137.5 97-97 136.5-36.5q80 0 138.5 36.5t97 97 58 137.5 19.5 155-19.5 152.5-58 134-97 95-138.5 35.5q-78 0-136.5-35.5t-97-94-58-133.5-19.5-152zm59 667l231 307h64l231-307-59-53-205 264-203-264z"/><glyph unicode="õ" horiz-adv-x="1017" d="M96 496q0 98 25.5 189t77 162 129.5 112.5 180 41.5q100 0 178-43t131-113.5 80-162.5 27-190q0-100-27-193.5t-79-164.5-130-114-180-43-179 44.5-128 116-78 165.5-27 193zm100 718q33 88 84 128t119 40q41 0 78-17t74-46q35-27 63.5-41t50.5-14q31 0 60.5 28.5t58.5 100.5l72-35q-37-98-90.5-139t-108.5-41q-41 0-81 20.5t-68 42.5q-78 59-121 59-35 0-63.5-26.5t-55.5-89.5zm1-718q0-80 19.5-157t58-137.5 97-97 136.5-36.5q80 0 138.5 36.5t97 97 58 137.5 19.5 155-19.5 152.5-58 134-97 95-138.5 35.5q-78 0-136.5-35.5t-97-94-58-133.5-19.5-152z"/><glyph unicode="ö" horiz-adv-x="1017" d="M96 496q0 98 25.5 189t77 162 129.5 112.5 180 41.5q100 0 178-43t131-113.5 80-162.5 27-190q0-100-27-193.5t-79-164.5-130-114-180-43-179 44.5-128 116-78 165.5-27 193zm101 0q0-80 19.5-157t58-137.5 97-97 136.5-36.5q80 0 138.5 36.5t97 97 58 137.5 19.5 155-19.5 152.5-58 134-97 95-138.5 35.5q-78 0-136.5-35.5t-97-94-58-133.5-19.5-152zm73 817q0 37 21.5 58.5t52.5 21.5 52.5-21.5 21.5-58.5q0-41-21.5-61.5t-52.5-20.5-52.5 20.5-21.5 61.5zm350 0q0 37 21.5 58.5t52.5 21.5 52.5-21.5 21.5-58.5q0-41-21.5-61.5t-52.5-20.5-52.5 20.5-21.5 61.5z"/><glyph unicode="÷" d="M74 631v98h876v-98h-876zm350-312q0 41 26.5 69t63.5 28 63.5-28 26.5-69q0-43-26.5-70.5t-63.5-27.5-63.5 27.5-26.5 70.5zm0 719q0 43 26.5 71t63.5 28 63.5-28 26.5-71q0-41-26.5-69.5t-63.5-28.5-63.5 28.5-26.5 69.5z"/><glyph unicode="ø" horiz-adv-x="1017" d="M96 496q0 98 25.5 189t77 162 129.5 112.5 180 41.5q80 0 145.5-26.5t116.5-73.5l84 115 70-53-99-129q47-72 73-159t26-183q0-100-27-193.5t-79-164.5-130-114-180-43q-78 0-140.5 26t-109.5 71l-88-117-64 53 95 127q-53 72-79 166t-26 193zm101 0q0-74 16-144.5t51-130.5l447 602q-39 41-88.5 64.5t-114.5 23.5q-78 0-136.5-35.5t-97-94-58-133.5-19.5-152zm118-344q37-39 85.5-61.5t107.5-22.5q80 0 138.5 36.5t97 97 58 137.5 19.5 155q0 68-14 133t-43 123z"/><glyph unicode="ù" horiz-adv-x="1011" d="M125 362v615h100v-610q0-102 21-152 29-78 87-112.5t150-34.5q88 0 158 36.5t129 90.5v782h100v-977h-92l-8 92q-53-47-125-82t-176-35q-258 0-324 213-20 63-20 174zm194 1014l76 84 317-284-51-60z"/><glyph unicode="ú" horiz-adv-x="1011" d="M125 362v615h100v-610q0-102 21-152 29-78 87-112.5t150-34.5q88 0 158 36.5t129 90.5v782h100v-977h-92l-8 92q-53-47-125-82t-176-35q-258 0-324 213-20 63-20 174zm231 814l318 284 76-84-344-260z"/><glyph unicode="û" horiz-adv-x="1011" d="M125 362v615h100v-610q0-102 21-152 29-78 87-112.5t150-34.5q88 0 158 36.5t129 90.5v782h100v-977h-92l-8 92q-53-47-125-82t-176-35q-258 0-324 213-20 63-20 174zm123 801l231 307h64l231-307-59-53-205 264-203-264z"/><glyph unicode="ü" horiz-adv-x="1011" d="M125 362v615h100v-610q0-102 21-152 29-78 87-112.5t150-34.5q88 0 158 36.5t129 90.5v782h100v-977h-92l-8 92q-53-47-125-82t-176-35q-258 0-324 213-20 63-20 174zm141 951q0 37 21.5 58.5t52.5 21.5 52.5-21.5 21.5-58.5q0-41-21.5-61.5t-52.5-20.5-52.5 20.5-21.5 61.5zm350 0q0 37 21.5 58.5t52.5 21.5 52.5-21.5 21.5-58.5q0-41-21.5-61.5t-52.5-20.5-52.5 20.5-21.5 61.5z"/><glyph unicode="ý" horiz-adv-x="917" d="M-20-303h16q129 0 237.5 73.5t165.5 202.5l-381 1004h113l334-897q86 180 172 412.5t154 484.5h106q-72-283-157-498t-162-383q-88-184-160-280-72-98-184.5-153.5t-241.5-55.5zm349 1479l318 284 76-84-344-260z"/><glyph unicode="þ" horiz-adv-x="1003" d="M145-395v1761h101v-461q43 39 105.5 67.5t164.5 28.5q98 0 171-37.5t122-104 73.5-158.5 24.5-203q0-117-31.5-213.5t-90-165-139.5-105.5-181-37q-72 0-126 16.5t-93 39.5v-428h-101zm101 532q37-29 89-49t120-20q158 0 254 112.5t96 311.5q0 86-17.5 161.5t-54.5 133-96 91-141 33.5q-78 0-142.5-31.5t-107.5-76.5v-666z"/><glyph unicode="ÿ" horiz-adv-x="917" d="M-20-303h16q129 0 237.5 73.5t165.5 202.5l-381 1004h113l334-897q86 180 172 412.5t154 484.5h106q-72-283-157-498t-162-383q-88-184-160-280-72-98-184.5-153.5t-241.5-55.5zm241 1616q0 37 21.5 58.5t52.5 21.5 52.5-21.5 21.5-58.5q0-41-21.5-61.5t-52.5-20.5-52.5 20.5-21.5 61.5zm350 0q0 37 21.5 58.5t52.5 21.5 52.5-21.5 21.5-58.5q0-41-21.5-61.5t-52.5-20.5-52.5 20.5-21.5 61.5z"/><glyph unicode="Œ" horiz-adv-x="1734" d="M102 684q0 147 41 272t117 216.5 182.5 142.5 235.5 51h967v-100h-625v-492h453v-100h-453v-574h661v-100h-1003q-133 0-239.5 52t-181.5 144.5-115 217.5-40 270zm115 0q0-123 32-229.5t92-185.5 145-124 192-45h240v1166h-240q-111 0-196-46t-144-126-90-185.5-31-224.5z"/><glyph unicode="œ" horiz-adv-x="1675" d="M96 496q0 98 25.5 189t78 162 130.5 112.5 180 41.5q139 0 223-67.5t137-179.5q47 119 134.5 183t207.5 64q94 0 166-35.5t121-100 74.5-157 28.5-202.5h-689q0-207 83-322.5t245-115.5q174 0 293 125l31-93q-12-12-38-32.5t-67-40-96-35-125-15.5q-141 0-238.5 66t-136.5 178q-20-49-53-94t-77-78-100-52.5-126-19.5q-102 0-179 44.5t-128 116-78 165.5-27 193zm101 0q0-80 19.5-157t58-137.5 97-97 136.5-36.5q80 0 138.5 36.5t98 97 59 137.5 19.5 155q0 82-19.5 157.5t-59 134-98 92-138.5 33.5q-78 0-136.5-35.5t-97-94-58-133.5-19.5-152zm725 100h565q-4 82-29.5 142.5t-63.5 98-84 56-96 18.5q-111 0-190.5-74.5t-101.5-240.5z"/><glyph unicode="Ÿ" horiz-adv-x="1021" d="M10 1366h121l375-604 389 604h117l-455-707v-659h-106v657zm256 287q0 37 21.5 58.5t52.5 21.5 52.5-21.5 21.5-58.5q0-41-21.5-61.5t-52.5-20.5-52.5 20.5-21.5 61.5zm350 0q0 37 21.5 58.5t52.5 21.5 52.5-21.5 21.5-58.5q0-41-21.5-61.5t-52.5-20.5-52.5 20.5-21.5 61.5z"/><glyph unicode="ˆ" horiz-adv-x="593" d="M33 1163l231 307h64l231-307-59-53-205 264-203-264z"/><glyph unicode="˜" horiz-adv-x="593" d="M-33 1212q33 88 84 128t119 40q41 0 78-17t74-46q35-27 63.5-41t50.5-14q31 0 60.5 28.5t58.5 100.5l72-35q-37-98-90.5-139t-108.5-41q-41 0-81 20.5t-68 42.5q-78 59-121 59-35 0-63.5-26.5t-55.5-89.5z"/><glyph horiz-adv-x="920"/><glyph horiz-adv-x="1841"/><glyph horiz-adv-x="920"/><glyph horiz-adv-x="1841"/><glyph horiz-adv-x="613"/><glyph horiz-adv-x="460"/><glyph horiz-adv-x="306"/><glyph horiz-adv-x="306"/><glyph horiz-adv-x="230"/><glyph horiz-adv-x="368"/><glyph horiz-adv-x="102"/><glyph unicode="‐" horiz-adv-x="598" d="M94 489v109h412v-109h-412z"/><glyph unicode="‑" horiz-adv-x="598" d="M94 489v109h412v-109h-412z"/><glyph unicode="‒" horiz-adv-x="598" d="M94 489v109h412v-109h-412z"/><glyph unicode="–" horiz-adv-x="1024" d="M0 489v93h1024v-93h-1024z"/><glyph unicode="—" horiz-adv-x="2048" d="M0 489v93h2048v-93h-2048z"/><glyph unicode="‘" horiz-adv-x="339" d="M92 1130q0 72 41 138.5t94 109.5l35-45q-27-27-52.5-63.5t-29.5-71.5q37 0 62.5-27.5t25.5-66.5-22.5-63.5-61.5-24.5q-45 0-68.5 33.5t-23.5 80.5z"/><glyph unicode="’" horiz-adv-x="339" d="M82 1290q0 39 22.5 63.5t61.5 24.5q45 0 68.5-33.5t23.5-80.5q0-72-41-138.5t-94-109.5l-35 45q27 27 52.5 63.5t29.5 71.5q-37 0-62.5 27.5t-25.5 66.5z"/><glyph unicode="‚" horiz-adv-x="323" d="M76 96q0 39 22.5 63.5t61.5 24.5q45 0 68.5-33.5t23.5-80.5q0-72-41-138.5t-94-109.5l-35 45q27 27 52.5 63.5t29.5 71.5q-37 0-62.5 27.5t-25.5 66.5z"/><glyph unicode="“" horiz-adv-x="647" d="M102 1130q0 72 41 138.5t94 109.5l35-45q-27-27-52.5-63.5t-29.5-71.5q37 0 62.5-27.5t25.5-66.5-22.5-63.5-61.5-24.5q-45 0-68.5 33.5t-23.5 80.5zm307 0q0 72 41 138.5t94 109.5l35-45q-27-27-52.5-63.5t-29.5-71.5q37 0 62.5-27.5t25.5-66.5-22.5-63.5-61.5-24.5q-45 0-68.5 33.5t-23.5 80.5z"/><glyph unicode="”" horiz-adv-x="647" d="M92 1290q0 39 22.5 63.5t61.5 24.5q45 0 68.5-33.5t23.5-80.5q0-72-41-138.5t-94-109.5l-35 45q27 27 52.5 63.5t29.5 71.5q-37 0-62.5 27.5t-25.5 66.5zm307 0q0 39 22.5 63.5t61.5 24.5q45 0 68.5-33.5t23.5-80.5q0-72-41-138.5t-94-109.5l-35 45q27 27 52.5 63.5t29.5 71.5q-37 0-62.5 27.5t-25.5 66.5z"/><glyph unicode="„" horiz-adv-x="630" d="M86 96q0 39 22.5 63.5t61.5 24.5q45 0 68.5-33.5t23.5-80.5q0-72-41-138.5t-94-109.5l-35 45q27 27 52.5 63.5t29.5 71.5q-37 0-62.5 27.5t-25.5 66.5zm307 0q0 39 22.5 63.5t61.5 24.5q45 0 68.5-33.5t23.5-80.5q0-72-41-138.5t-94-109.5l-35 45q27 27 52.5 63.5t29.5 71.5q-37 0-62.5 27.5t-25.5 66.5z"/><glyph unicode="•" horiz-adv-x="968" d="M109 766q0 82 28.5 154.5t79.5 126 120 85 148 31.5q78 0 146.5-31.5t119-85 80-126 29.5-154.5-29.5-153.5-80-126-119-85-146.5-30.5q-80 0-148.5 30.5t-118.5 84-79.5 125-29.5 155.5z"/><glyph unicode="…" horiz-adv-x="1099" d="M88 70q0 41 24.5 65.5t59.5 24.5 60.5-24.5 25.5-65.5q0-43-25.5-68t-60.5-25-59.5 25-24.5 68zm358 0q0 41 24.5 65.5t59.5 24.5 60.5-24.5 25.5-65.5q0-43-25.5-68t-60.5-25-59.5 25-24.5 68zm361 0q0 41 24.5 65.5t59.5 24.5 60.5-24.5 25.5-65.5q0-43-25.5-68t-60.5-25-59.5 25-24.5 68z"/><glyph horiz-adv-x="368"/><glyph unicode="‹" horiz-adv-x="610" d="M78 512l352 408 62-60-297-340 325-336-59-63z"/><glyph unicode="›" horiz-adv-x="610" d="M90 856l57 64 383-392-350-407-61 59 297 342z"/><glyph horiz-adv-x="460"/><glyph unicode="€" d="M51 496v98h602v-98h-321q8-119 35.5-199t69.5-129 95.5-70.5 112.5-21.5q88 0 147.5 31.5t125.5 107.5l55-86q-49-59-129-105.5t-197-46.5q-84 0-156.5 27t-128 88.5-92.5 159.5-49 244h-170zm0 252v98h168q16 272 128 402t284 130q121 0 198.5-51t131.5-121l-70-73q-53 66-111.5 106.5t-148.5 40.5q-129 0-207-101.5t-94-332.5h323v-98h-602z"/><glyph unicode="™" horiz-adv-x="1136" d="M37 1290v76h438v-76h-178v-512h-80v512h-180zm500-512v588h94l172-479 160 479h98v-588h-80v424l-145-428h-64l-158 424v-420h-77z"/><glyph unicode="◼" horiz-adv-x="972" d="M0 0v973h973v-973h-973z"/><glyph unicode="ﬁ" horiz-adv-x="913" d="M45 887v90h139v100q0 84 23.5 143.5t64.5 98.5 95.5 56.5 115.5 17.5q92 0 157-28t97-52l-32-86q-16 12-43 26.5t-58 24.5-63.5 17.5-63.5 7.5q-109 0-150.5-63.5t-41.5-160.5v-102h215v-90h-215v-887h-103v887h-137zm625-887v977h102v-977h-102z"/><glyph unicode="ﬂ" horiz-adv-x="985" d="M45 887v90h139v108q0 154 88 231t234 77q76 0 146.5-15.5t117.5-34.5v-1150q0-72 15.5-102t68.5-30q31 0 56.5 10.5t45.5 20.5l19-82q-27-14-64-23.5t-71-9.5q-55 0-89 15.5t-51.5 41-23.5 60.5-6 74v1112q-31 10-75 16.5t-85 6.5q-119 0-172-57.5t-53-174.5v-94h215v-90h-215v-887h-103v887h-137z"/></font>
</defs>
</svg>
